<?xml version="1.0" standalone="no"?>
<!DOCTYPE svg PUBLIC "-//W3C//DTD SVG 1.1//EN" "http://www.w3.org/Graphics/SVG/1.1/DTD/svg11.dtd" >
<svg xmlns="http://www.w3.org/2000/svg" xmlns:xlink="http://www.w3.org/1999/xlink" version="1.1">
<metadata>
Created by FontForge 20170731 at Sat Jan 28 19:01:57 2017
 By Aleksey,,,
SIL Open Font License
</metadata>
<defs>
<font id="Fyodor-Bold" horiz-adv-x="600" >
  <font-face 
    font-family="Fyodor"
    font-weight="700"
    font-stretch="normal"
    units-per-em="1024"
    panose-1="0 0 8 0 0 0 0 0 0 0"
    ascent="819"
    descent="-205"
    x-height="696"
    cap-height="696"
    bbox="-41 -145 730 920"
    underline-thickness="1"
    underline-position="-2"
    unicode-range="U+000D-201E"
  />
<missing-glyph horiz-adv-x="543" 
d="M0 686h410v-635h-410v635zM51 102h307v533h-307v-134v-399z" />
    <glyph glyph-name=".notdef" horiz-adv-x="543" 
d="M0 686h410v-635h-410v635zM51 102h307v533h-307v-134v-399z" />
    <glyph glyph-name=".null" horiz-adv-x="0" 
 />
    <glyph glyph-name="nonmarkingreturn" unicode="&#xd;" horiz-adv-x="0" 
 />
    <glyph glyph-name="uni0000" horiz-adv-x="0" 
 />
    <glyph glyph-name="uni0000" horiz-adv-x="0" 
 />
    <glyph glyph-name="space" unicode=" " horiz-adv-x="200" 
 />
    <glyph glyph-name="exclam" unicode="!" horiz-adv-x="208" 
d="M137 168h-123l-2 528h126zM137 123v-123h-125v123h125z" />
    <glyph glyph-name="quotedbl" unicode="&#x22;" horiz-adv-x="440" 
d="M170 499h-79v40l-79 19v138h157zM301 499v40l-79 19v138h157l1 -197h-79z" />
    <glyph glyph-name="numbersign" unicode="#" horiz-adv-x="754" 
d="M512 161l-43 -161h-166l46 160l-102 -1l-41 -159h-166l44 159h-72l1 142h111l31 110h-78l-2 149h122l39 136h153l-36 -136h108l39 136h153l-36 -136h74l3 -147h-116l-29 -110h79l1 -142h-117zM419 412l-105 -1l-29 -109h104z" />
    <glyph glyph-name="ampersand" unicode="&#x26;" horiz-adv-x="633" 
d="M573 311h-82q-1 -38 -1 -82v-95v-52q0 -41 -20 -61q-18 -21 -61 -21h-316q-21 0 -36 1.5t-25 12.5q-20 20 -20 61v173q0 14 3.5 38t16.5 35q12 13 28.5 22.5t35.5 19.5l-59 37q-20 16 -21.5 40t-1.5 43v122q0 12 1.5 29.5t13.5 30.5q28 31 66 31h312q20 0 36 -4.5
t30 -19.5q5 -5 8.5 -11.5t5.5 -21.5t3 -43t1 -76h-156v40h-176v-135h176v38l156 1v-38h82v-115zM159 309v-174h175l1 174h-176z" />
    <glyph glyph-name="quotesingle" unicode="'" horiz-adv-x="230" 
d="M91 499v40l-79 19v138h157l1 -197h-79z" />
    <glyph glyph-name="parenleft" unicode="(" horiz-adv-x="333" 
d="M197 0h73v-135h-75h-49h-6h-17q-10 0 -19 1t-17 4q-8 2 -14 6t-11 9t-8.5 11.5t-6.5 13.5q-5 18 -5 36v16v14v13v11v18v16v12v74v27v50v20v24v29v101v113v55v137v75q0 18 5 36q3 7 6.5 13.5t8.5 11.5t11 9t14 6q8 3 17 4t19 1h14h20h30h43h43v-136h-76v-175v-267v-254z
" />
    <glyph glyph-name="parenright" unicode=")" horiz-adv-x="303" 
d="M15 -135v135h73v254v267v175h-76v136h43h43h30h20h14q10 0 19 -1t17 -4q8 -2 14 -6t11 -9t8.5 -11.5t6.5 -13.5q5 -18 5 -36v-75v-137v-55v-113v-101v-29v-24v-20v-50v-27v-74v-12v-16v-18v-11v-13v-14v-16q0 -18 -5 -36q-3 -7 -6.5 -13.5t-8.5 -11.5t-11 -9t-14 -6
q-8 -3 -17 -4t-19 -1h-17h-6h-49h-75z" />
    <glyph glyph-name="asterisk" unicode="*" horiz-adv-x="227" 
d="M139 726l39 -23l-19 -35l-40 24l1 -49h-45v49l-42 -23l-20 38l42 19l-43 23l21 38l42 -24l-1 50h44l1 -50l39 24l22 -38z" />
    <glyph glyph-name="comma" unicode="," horiz-adv-x="183" 
d="M12 0v138h157l1 -197h-79v40z" />
    <glyph glyph-name="hyphen" unicode="-" horiz-adv-x="272" 
d="M7 272v123h210v-123h-210z" />
    <glyph glyph-name="period" unicode="." horiz-adv-x="230" 
d="M12 0v138h157l1 -138h-158z" />
    <glyph glyph-name="slash" unicode="/" horiz-adv-x="420" 
d="M217 696h153l-183 -696h-166z" />
    <glyph glyph-name="zero" unicode="0" horiz-adv-x="556" 
d="M491 651q5 -18 5 -36v-534q0 -18 -5 -36q-3 -7 -6.5 -13.5t-8.5 -11.5t-11 -9t-14 -6q-8 -3 -17 -4t-19 -1h-322q-10 0 -19 1t-17 4q-8 2 -14 6t-11 9t-8.5 11.5t-6.5 13.5q-5 18 -5 36v534q0 18 5 36q3 7 6.5 13.5t8.5 11.5t11 9t14 6q8 3 17 4t19 1h322q10 0 19 -1
t17 -4q8 -2 14 -6t11 -9t8.5 -11.5t6.5 -13.5zM340 135v425h-173v-425h173z" />
    <glyph glyph-name="one" unicode="1" horiz-adv-x="351" 
d="M97 560h-85l45 136h213l1 -696h-174v560z" />
    <glyph glyph-name="two" unicode="2" 
d="M499 0h-484v345q0 10 1 19t4 17q5 15 15 25q11 10 24 15q8 3 17.5 4t19.5 1h245v134h-173v-77h-156v132q0 10 1 19t4 17q5 15 15 25q11 10 24 15q8 3 17.5 4t19.5 1h322q10 0 19 -1t17 -4q8 -2 14 -6t11 -9t8.5 -11.5t6.5 -13.5q5 -18 5 -36v-244q0 -19 -5 -32
q-5 -15 -15 -25t-24 -15q-6 -2 -12.5 -3t-24 -1.5t-52.5 -0.5h-99l-75 -1h-20v-12v0l1 -146h329v-135z" />
    <glyph glyph-name="three" unicode="3" 
d="M471 360l25 -25v-254q0 -18 -5 -36q-3 -7 -6.5 -13.5t-8.5 -11.5t-11 -9t-14 -6q-8 -3 -22 -4t-24 -1h-302q-10 0 -24.5 1t-22.5 4q-13 5 -24 15q-10 10 -15 25q-3 8 -4 17t-1 19v132h156v-78h173v156h-166v133h166v136h-173v-77h-156v132q0 10 1 19t4 17q5 15 15 25
q11 11 24 15q8 3 23 4t25 1h301q10 0 24 -1t22 -4q8 -2 14 -6t11 -9t8.5 -11.5t6.5 -13.5q5 -18 5 -36v-229z" />
    <glyph glyph-name="four" unicode="4" horiz-adv-x="557" 
d="M461 169v-169h-169l1 169l-334 -1l240 528h263l-1 -386h78v-141h-78zM294 544l-95 -234h94z" />
    <glyph glyph-name="five" unicode="5" 
d="M169 469h20l75 -1h99t52.5 -0.5t24 -1.5t12.5 -3q13 -4 24 -15q10 -10 15 -25q5 -13 5 -32v-310q0 -18 -5 -36q-3 -7 -6.5 -13.5t-8.5 -11.5t-11 -9t-14 -6q-8 -3 -17 -4t-19 -1h-322q-10 0 -19.5 1t-17.5 4q-13 5 -24 15q-10 10 -15 25q-3 8 -4 17t-1 19v132h156v-77
h173v200h-245q-10 0 -19.5 1t-17.5 4q-13 5 -24 15q-10 10 -15 25q-3 8 -4 17t-1 19v279h484v-135h-329l-1 -80v-12z" />
    <glyph glyph-name="six" unicode="6" 
d="M343 560h-173v-134h245q10 0 19.5 -1t17.5 -4q14 -4 24 -15q10 -10 15 -25q3 -8 4 -17t1 -19v-264q0 -18 -5 -36q-3 -7 -6.5 -13.5t-8.5 -11.5t-11 -9t-14 -6q-8 -3 -17 -4t-19 -1h-322q-10 0 -19.5 1t-17.5 4q-13 5 -24 15q-10 10 -15 25q-3 8 -4 17t-1 19v132h2v206
l156 -1v-28l-2 -177v-78h173l1 146v12l-173 1l1 96v28l-155 1v196q0 18 5 36q3 7 6.5 13.5t8.5 11.5t11 9t14 6q8 3 17 4t19 1h322q10 0 19.5 -1t17.5 -4q14 -4 24 -15q10 -10 15 -25q3 -8 4 -17t1 -19v-132h-156v77z" />
    <glyph glyph-name="seven" unicode="7" horiz-adv-x="477" 
d="M5 696h432l-267 -696h-157l222 561l-231 -1z" />
    <glyph glyph-name="eight" unicode="8" horiz-adv-x="550" 
d="M470 328q13 -11 16.5 -35t3.5 -38v-173q0 -41 -20 -61q-18 -21 -61 -21h-316q-21 0 -36 1.5t-25 12.5q-20 20 -20 61v173q0 14 3.5 38t16.5 35q12 13 28.5 22.5t35.5 19.5l-59 37q-20 16 -21.5 40t-1.5 43v122q0 12 1.5 29.5t13.5 30.5q28 31 66 31h312q20 0 36 -4.5
t30 -19.5q12 -13 13.5 -30.5t1.5 -29.5v-122q0 -19 -1.5 -43t-21.5 -40l-59 -45q19 -8 35.5 -14.5t28.5 -19.5zM159 560v-135h176v135h-176zM159 309v-174h175l1 174h-176z" />
    <glyph glyph-name="nine" unicode="9" 
d="M494 651q3 -8 4 -17t1 -19v-132h-2v-206l-156 1v28l2 177v78h-173l-1 -146v-12l173 -1l-1 -96v-28l155 -1v-196q0 -18 -5 -36q-3 -7 -6.5 -13.5t-8.5 -11.5t-11 -9t-14 -6q-8 -3 -17 -4t-19 -1h-322q-10 0 -19.5 1t-17.5 4q-13 5 -24 15q-10 10 -15 25q-3 8 -4 17t-1 19
v132h156v-77h173v134h-245q-10 0 -19.5 1t-17.5 4q-13 5 -24 15q-10 10 -15 25q-3 8 -4 17t-1 19v264q0 18 5 36q3 7 6.5 13.5t8.5 11.5t11 9t14 6q8 3 17 4t19 1h322q10 0 19.5 -1t17.5 -4q14 -4 24 -15q10 -10 15 -25z" />
    <glyph glyph-name="colon" unicode=":" horiz-adv-x="230" 
d="M12 338v138h157l1 -138h-158zM12 68v138h157l1 -138h-158z" />
    <glyph glyph-name="semicolon" unicode=";" horiz-adv-x="231" 
d="M12 331v138h157l1 -138h-158zM13 60v138h157l1 -197h-79v40z" />
    <glyph glyph-name="question" unicode="?" 
d="M491 651q5 -18 5 -36v-264q0 -10 -1 -19t-4 -17q-5 -15 -15 -25q-11 -11 -24 -15q-8 -3 -17.5 -4t-19.5 -1h-245v-81h-155v136q0 19 5 32q5 15 15 25q11 11 24 15q6 2 12.5 3t24 1.5t52.5 0.5h99l75 1h20v12v0l-1 146h-173v-78h-156v132q0 10 1 19t4 17q5 15 15 25
q11 11 24 15q8 3 17.5 4t19.5 1h322q10 0 19 -1t17 -4q8 -2 14 -6t11 -9t8.5 -11.5t6.5 -13.5zM170 0h-158v138h157z" />
    <glyph glyph-name="A" unicode="A" horiz-adv-x="545" 
d="M191 116q-1 -5 -3 -20t-4.5 -33.5t-5 -36t-4.5 -26.5h-162v2l153 694h177l153 -694v-2h-162q-2 19 -6 48.5t-10 67.5h-126zM213 232h81q-7 40 -17 100.5t-23 139.5q-4 -20 -8 -45t-9 -55z" />
    <glyph glyph-name="B" unicode="B" horiz-adv-x="497" 
d="M14 0l-2 696h342q20 0 36 -4.5t30 -19.5q12 -13 13.5 -30.5t1.5 -29.5v-122q0 -19 -1.5 -43t-21.5 -40q-20 -14 -33 -23.5t-26 -17.5q19 -10 35.5 -17.5t28.5 -20.5q13 -11 16.5 -35t3.5 -38v-173q0 -41 -20 -61q-18 -21 -61 -21h-342zM166 560v-135h116v135h-116z
M166 135h115l1 174h-21h-36.5h-36.5h-22v-174z" />
    <glyph glyph-name="C" unicode="C" horiz-adv-x="556" 
d="M340 135v78h156v-132q0 -10 -1 -19t-4 -17q-5 -15 -15 -25t-24 -15q-8 -3 -17.5 -4t-19.5 -1h-322q-10 0 -19 1t-17 4q-8 2 -14 6t-11 9t-8.5 11.5t-6.5 13.5q-5 18 -5 36v534q0 18 5 36q3 7 6.5 13.5t8.5 11.5t11 9t14 6q8 3 17 4t19 1h322q10 0 19.5 -1t17.5 -4
q14 -4 24 -15q10 -10 15 -25q3 -8 4 -17t1 -19v-132h-156v77h-173v-425h173z" />
    <glyph glyph-name="D" unicode="D" horiz-adv-x="557" 
d="M492 651q4 -14 4.5 -28t0.5 -24v-518q0 -18 -5 -36q-3 -7 -6.5 -13.5t-8.5 -11.5t-11 -9t-14 -6q-8 -3 -17 -4t-19 -1h-402l-2 696h404q10 0 19 -1t17 -4q8 -2 14 -6t11 -9t8.5 -11.5t6.5 -13.5zM341 135l-3 425h-170v-425h173z" />
    <glyph glyph-name="E" unicode="E" horiz-adv-x="459" 
d="M12 696h387v-56v-80h-232v-134h213v-116h-213v-175h232v-135h-387v696z" />
    <glyph glyph-name="F" unicode="F" horiz-adv-x="459" 
d="M12 696h387v-56v-80h-232v-134h213v-116h-213l-2 -310h-153v696z" />
    <glyph glyph-name="G" unicode="G" horiz-adv-x="556" 
d="M340 560h-173v-425h173v120h-73v113h228v-113h1v-174q0 -10 -1 -19t-4 -17q-5 -15 -15 -25t-24 -15q-8 -3 -17.5 -4t-19.5 -1h-322q-10 0 -19 1t-17 4q-8 2 -14 6t-11 9t-8.5 11.5t-6.5 13.5q-5 18 -5 36v534q0 18 5 36q3 7 6.5 13.5t8.5 11.5t11 9t14 6q8 3 17 4t19 1
h322q10 0 19.5 -1t17.5 -4q14 -4 24 -15q10 -10 15 -25q3 -8 4 -17t1 -19v-132h-156v77z" />
    <glyph glyph-name="H" unicode="H" horiz-adv-x="594" 
d="M378 289h-213v-289h-153v696h153v-270h213v270h156l-2 -696h-154v289z" />
    <glyph glyph-name="I" unicode="I" horiz-adv-x="226" 
d="M186 0h-174v696h173z" />
    <glyph glyph-name="J" unicode="J" horiz-adv-x="479" 
d="M12 213h156v-78h94v561h154q2 -147 2.5 -248.5t0.5 -167.5t-0.5 -102.5t-0.5 -54t-0.5 -21.5t-0.5 -5v-16q0 -18 -5 -36q-3 -7 -6.5 -13.5t-8.5 -11.5t-11 -9t-14 -6q-8 -3 -17 -4t-19 -1h-243q-10 0 -19.5 1t-17.5 4q-13 5 -24 15q-10 10 -15 25q-3 8 -4 17t-1 19v132z
" />
    <glyph glyph-name="K" unicode="K" horiz-adv-x="497" 
d="M282 0l-117 275v-275h-153v696h154l-1 -254l98 254h154v-6l-135 -323l155 -366q0 -2 -3 -2t-5 1q-7 1 -7 0h-140z" />
    <glyph glyph-name="L" unicode="L" horiz-adv-x="399" 
d="M166 696l1 -556h202l-1 -140h-356v696h154z" />
    <glyph glyph-name="M" unicode="M" horiz-adv-x="594" 
d="M388 696h146v-696h-46h-34h-28h-27v348l-77 -252h-97l-77 249v-345h-49.5h-36h-27h-23.5v696h135l125 -310z" />
    <glyph glyph-name="N" unicode="N" horiz-adv-x="611" 
d="M396 329v367h155v-696h-135l-235 368v-368h-151v696h134z" />
    <glyph glyph-name="O" unicode="O" horiz-adv-x="556" 
d="M491 651q5 -18 5 -36v-534q0 -18 -5 -36q-3 -7 -6.5 -13.5t-8.5 -11.5t-11 -9t-14 -6q-8 -3 -17 -4t-19 -1h-322q-10 0 -19 1t-17 4q-8 2 -14 6t-11 9t-8.5 11.5t-6.5 13.5q-5 18 -5 36v534q0 18 5 36q3 7 6.5 13.5t8.5 11.5t11 9t14 6q8 3 17 4t19 1h322q10 0 19 -1
t17 -4q8 -2 14 -6t11 -9t8.5 -11.5t6.5 -13.5zM340 135v425h-173v-425h14h19h122h18z" />
    <glyph glyph-name="P" unicode="P" horiz-adv-x="510" 
d="M167 132v-132h-63h-92v696h353q21 0 37 -1t26 -12q22 -19 22 -60v-314q0 -40 -22 -62q-23 -20 -64 -20h-83h-114v-95zM167 560v-212h136v212h-136z" />
    <glyph glyph-name="Q" unicode="Q" horiz-adv-x="598" 
d="M460 -53l-54 55l-313 -2q-10 0 -19 1t-17 4q-8 2 -14 6t-11 9t-8.5 11.5t-6.5 13.5q-5 18 -5 36v44t0.5 104t1 135t1 136t1 105.5t1.5 45.5q3 7 6.5 13.5t8.5 11.5t11 9t14 6q8 3 20.5 4t32.5 1h295q10 0 24 -1t22 -4q8 -2 14 -6t11 -9t8.5 -11.5t6.5 -13.5q1 -3 1.5 -8
t1 -20.5t1 -46t1 -84.5t0.5 -136v-200v-75l52 -53zM167 560v-425h173v425h-173z" />
    <glyph glyph-name="R" unicode="R" horiz-adv-x="515" 
d="M19 0l-7 696h328q18 0 38.5 -1t31.5 -11q23 -19 23 -61v-34v-210q0 -21 -5 -36t-15 -26q-19 -19 -62 -19h-21h-3h-5l133 -291v-4v-3h-97h-69l-117 259v-259h-90h-63zM155 470v-83h75h60v173h-135v-90z" />
    <glyph glyph-name="S" unicode="S" horiz-adv-x="559" 
d="M343 560h-173v-134h245q10 0 19.5 -1t17.5 -4q14 -5 24 -15t15 -25q3 -8 4 -17t1 -19v-264q0 -18 -5 -36q-3 -7 -6.5 -13.5t-8.5 -11.5t-11 -9t-14 -6q-8 -3 -23 -4t-25 -1h-297q-10 0 -26 1t-24 4q-13 4 -24 15q-10 10 -15 25q-3 8 -4 17t-1 19v132h156v-78h174v146v13
h-95h-99t-52.5 0.5t-24 1.5t-12.5 3q-13 4 -24 15q-10 10 -15 25q-5 13 -5 32v244q0 18 5 36q3 7 6.5 13.5t8.5 11.5t11 9t14 6q8 3 24.5 4t26.5 1h290q10 0 28 -1t26 -4q14 -4 24 -15q10 -10 15 -25q3 -8 4 -17t1 -19v-132h-156v77z" />
    <glyph glyph-name="T" unicode="T" horiz-adv-x="571" 
d="M284 0h-101v234v326h-171v58v78h519v-55v-81h-174v-232v-328h-73z" />
    <glyph glyph-name="U" unicode="U" horiz-adv-x="574" 
d="M340 170l-3 526h159v-615q0 -10 -1 -19t-4 -17q-5 -15 -15 -25t-24 -15q-8 -3 -22.5 -4t-24.5 -1h-302q-10 0 -24 1t-22 4q-8 2 -14 6t-11 9t-8.5 11.5t-6.5 13.5q-5 18 -5 36v615h149l6 -561h173v35z" />
    <glyph glyph-name="V" unicode="V" horiz-adv-x="574" 
d="M160 0l-160 696h180l90 -426l90 426h170l-160 -696h-210z" />
    <glyph glyph-name="W" unicode="W" horiz-adv-x="706" 
d="M666 696l-71 -696h-146l-116 310l-125 -310h-79h-56l-61 696q23 0 43 0.5t37 -0.5h85l32 -345l77 249h97l77 -252l44 348h30h31.5h28h18.5h54z" />
    <glyph glyph-name="X" unicode="X" horiz-adv-x="527" 
d="M487 0h-151l-83 266l-95 -266h-146v6l125 354l-108 330v6h151l70 -270v-1l82 271h137v-6l-107 -330l125 -354v-6z" />
    <glyph glyph-name="Y" unicode="Y" horiz-adv-x="581" 
d="M335 234l-19 -234h-174l39 232l-181 464h176l82 -252l94 252h189z" />
    <glyph glyph-name="Z" unicode="Z" horiz-adv-x="451" 
d="M391 696l-178 -556h171l-2 -140h-369l176 561l-177 -1l1 136h378z" />
    <glyph glyph-name="bracketleft" unicode="[" horiz-adv-x="303" 
d="M167 0h73v-135h-75h-49h-6h-98v255v27v50v20v24v29v101v113v55v157v136h231v-136h-76v-175v-267v-254z" />
    <glyph glyph-name="backslash" unicode="\" horiz-adv-x="420" 
d="M204 0l-183 696h153l196 -696h-166z" />
    <glyph glyph-name="bracketright" unicode="]" horiz-adv-x="303" 
d="M15 -135v135h73v254v267v175h-76v136h231v-136v-157v-55v-113v-101v-29v-24v-20v-50v-27v-255h-98h-6h-49h-75z" />
    <glyph glyph-name="underscore" unicode="_" horiz-adv-x="502" 
d="M12 -145v123h430v-123h-430z" />
    <glyph glyph-name="a" unicode="a" horiz-adv-x="555" 
d="M191 116q-1 -5 -3 -20t-4.5 -33.5t-5 -36t-4.5 -26.5h-162v2l153 694h177l153 -694v-2h-162q-2 19 -6 48.5t-10 67.5h-126zM213 232h81q-7 40 -17 100.5t-23 139.5q-4 -20 -8 -45t-9 -55z" />
    <glyph glyph-name="b" unicode="b" horiz-adv-x="497" 
d="M14 0l-2 696h342q20 0 36 -4.5t30 -19.5q12 -13 13.5 -30.5t1.5 -29.5v-122q0 -19 -1.5 -43t-21.5 -40q-20 -14 -33 -23.5t-26 -17.5q19 -10 35.5 -17.5t28.5 -20.5q13 -11 16.5 -35t3.5 -38v-121v-15v-10v-27q0 -41 -20 -61q-18 -21 -61 -21h-142h-200zM166 425h33h83
v29v53v53h-116v-45v-90zM166 135h49h66v32t1 40v102q-18 -1 -48 0h-33h-35v-33v-40v-101z" />
    <glyph glyph-name="c" unicode="c" horiz-adv-x="556" 
d="M340 213h32h53h30h41v-62v-70q0 -10 -1 -19t-4 -17q-5 -15 -15 -25t-24 -15q-8 -3 -17.5 -4t-19.5 -1h-299h-6h-17q-10 0 -19 1t-17 4q-8 2 -14 6t-11 9t-8.5 11.5t-6.5 13.5q-5 18 -5 36v16v14v504q0 18 5 36q3 7 6.5 13.5t8.5 11.5t11 9t14 6q8 3 17 4t19 1h14h20h273
h15q10 0 19.5 -1t17.5 -4q14 -4 24 -15q10 -10 15 -25q3 -8 4 -17t1 -19v-16v-14v-12v-11v-34v-21v-9v-15h-33h-52h-30h-41v38v39h-173v-43v-60v-134v-188h13h129h13h18v35v43z" />
    <glyph glyph-name="d" unicode="d" horiz-adv-x="557" 
d="M492 651q5 -18 5 -36v-16v-518q0 -18 -5 -36q-3 -7 -6.5 -13.5t-8.5 -11.5t-11 -9t-14 -6q-8 -3 -17 -4t-19 -1h-250h-49h-4h-99l-1 135v46v129v29v81v120l-1 156h116h273h15q10 0 19 -1t17 -4q8 -2 14 -6t11 -9t8.5 -11.5t6.5 -13.5zM341 135l-3 425h-170v-237v-42v-146
h14h19h122h18z" />
    <glyph glyph-name="e" unicode="e" horiz-adv-x="459" 
d="M12 696h387v-136h-232v-134h213v-116h-213v-175h232v-135h-387v696z" />
    <glyph glyph-name="f" unicode="f" horiz-adv-x="449" 
d="M12 696h387v-56v-80h-232v-134h213v-116h-213l-2 -310h-153v696z" />
    <glyph glyph-name="g" unicode="g" horiz-adv-x="546" 
d="M340 560h-173v-425h173v120h-73v113h228v-113h1v-174q0 -10 -1 -19t-4 -17q-5 -15 -15 -25t-24 -15q-8 -3 -17.5 -4t-19.5 -1h-322q-10 0 -19 1t-17 4q-8 2 -14 6t-11 9t-8.5 11.5t-6.5 13.5q-5 18 -5 36v534q0 18 5 36q3 7 6.5 13.5t8.5 11.5t11 9t14 6q8 3 17 4t19 1
h322q10 0 19.5 -1t17.5 -4q14 -4 24 -15q10 -10 15 -25q3 -8 4 -17t1 -19v-132h-156v77z" />
    <glyph glyph-name="h" unicode="h" 
d="M378 289h-213v-289h-153v696h153v-270h213v270h156l-2 -696h-154v289z" />
    <glyph glyph-name="i" unicode="i" horiz-adv-x="226" 
d="M12 0v696h173l1 -696h-73h-101z" />
    <glyph glyph-name="j" unicode="j" horiz-adv-x="479" 
d="M12 213h156v-78h94v561h154q2 -147 2.5 -248.5t0.5 -167.5t-0.5 -102.5t-0.5 -54t-0.5 -21.5t-0.5 -5v-16q0 -18 -5 -36q-3 -7 -6.5 -13.5t-8.5 -11.5t-11 -9t-14 -6q-8 -3 -17 -4t-19 -1h-243q-10 0 -19.5 1t-17.5 4q-13 5 -24 15q-10 10 -15 25q-3 8 -4 17t-1 19v132z
" />
    <glyph glyph-name="k" unicode="k" horiz-adv-x="497" 
d="M282 0l-117 275v-275h-153v696h154v-63t-0.5 -74t-1 -69t0.5 -48l98 254h154v-6l-135 -323l155 -366q0 -2 -3 -2t-5 1q-7 1 -7 0h-140z" />
    <glyph glyph-name="l" unicode="l" horiz-adv-x="399" 
d="M166 696l1 -556h202l-1 -140h-190h-50h-71h-19h-26v289v407h63h91z" />
    <glyph glyph-name="m" unicode="m" 
d="M388 696h146v-696h-135v348l-77 -252h-97l-77 249v-345h-136v696h135l125 -310z" />
    <glyph glyph-name="n" unicode="n" 
d="M396 329v367h155v-696h-135l-235 368v-368h-151v696h134z" />
    <glyph glyph-name="o" unicode="o" horiz-adv-x="556" 
d="M491 651q5 -18 5 -36v-534q0 -18 -5 -36q-3 -7 -6.5 -13.5t-8.5 -11.5t-11 -9t-14 -6q-8 -3 -17 -4t-19 -1h-322q-10 0 -19 1t-17 4q-8 2 -14 6t-11 9t-8.5 11.5t-6.5 13.5q-5 18 -5 36v534q0 18 5 36q3 7 6.5 13.5t8.5 11.5t11 9t14 6q8 3 17 4t19 1h322q10 0 19 -1
t17 -4q8 -2 14 -6t11 -9t8.5 -11.5t6.5 -13.5zM340 135v425h-173v-425h173z" />
    <glyph glyph-name="p" unicode="p" horiz-adv-x="510" 
d="M167 227v-227h-155v696h353q21 0 37 -1t26 -12q22 -19 22 -60v-314q0 -40 -22 -62q-23 -20 -64 -20h-197zM303 560h-136v-212h136v212z" />
    <glyph glyph-name="q" unicode="q" horiz-adv-x="598" 
d="M460 -53l-54 55l-313 -2q-10 0 -19 1t-17 4q-8 2 -14 6t-11 9t-8.5 11.5t-6.5 13.5q-5 18 -5 36v44t0.5 104t1 135t1 136t1 105.5t1.5 45.5q3 7 6.5 13.5t8.5 11.5t11 9t14 6q8 3 17 4t19 1h322q10 0 19 -1t17 -4q8 -2 14 -6t11 -9t8.5 -11.5t6.5 -13.5q1 -3 1.5 -8
t1 -20.5t1 -46t1 -84.5t0.5 -136v-200v-75l52 -53zM167 560v-425h173v425h-173z" />
    <glyph glyph-name="r" unicode="r" horiz-adv-x="515" 
d="M19 0l-7 696h339q18 0 33 -1t26 -11q23 -19 23 -61v-244q0 -21 -5 -36t-15 -26q-19 -19 -62 -19h-29l133 -291v-7h-166l-117 259v-259h-153zM155 560v-173h135v173h-135z" />
    <glyph glyph-name="s" unicode="s" horiz-adv-x="559" 
d="M343 560h-173v-134h245q10 0 19.5 -1t17.5 -4q14 -5 24 -15t15 -25q3 -8 4 -17t1 -19v-264q0 -18 -5 -36q-3 -7 -6.5 -13.5t-8.5 -11.5t-11 -9t-14 -6q-8 -3 -17 -4t-19 -1h-322q-10 0 -19.5 1t-17.5 4q-13 4 -24 15q-10 10 -15 25q-3 8 -4 17t-1 19v132h156v-78h174v146
v13h-95h-99t-52.5 0.5t-24 1.5t-12.5 3q-13 4 -24 15q-10 10 -15 25q-5 13 -5 32v244q0 18 5 36q3 7 6.5 13.5t8.5 11.5t11 9t14 6q8 3 17 4t19 1h322q10 0 19.5 -1t17.5 -4q14 -4 24 -15q10 -10 15 -25q3 -8 4 -17t1 -19v-132h-156v77z" />
    <glyph glyph-name="t" unicode="t" horiz-adv-x="571" 
d="M357 0h-174v560h-171v136h519v-136h-174v-560z" />
    <glyph glyph-name="u" unicode="u" horiz-adv-x="536" 
d="M340 170l-3 526h159v-615q0 -10 -1 -19t-4 -17q-5 -15 -15 -25t-24 -15q-8 -3 -17.5 -4t-19.5 -1h-299h-6h-17q-10 0 -19 1t-17 4q-8 2 -14 6t-11 9t-8.5 11.5t-6.5 13.5q-5 18 -5 36v16v599h149l6 -561h13h129h13h18v35z" />
    <glyph glyph-name="v" unicode="v" horiz-adv-x="570" 
d="M160 0l-160 696h180l90 -426l90 426h170l-160 -696h-210z" />
    <glyph glyph-name="w" unicode="w" horiz-adv-x="706" 
d="M666 696l-71 -696h-146l-116 310l-125 -310h-135l-61 696h165l32 -345l77 249h97l77 -252l44 348h162z" />
    <glyph glyph-name="x" unicode="x" horiz-adv-x="527" 
d="M487 0h-151l-83 266l-95 -266h-146v6l125 354l-108 330v6h151l70 -270v-1l82 271h137v-6l-107 -330l125 -354v-6z" />
    <glyph glyph-name="y" unicode="y" horiz-adv-x="591" 
d="M335 234l-19 -234h-174l39 232l-181 464h176l82 -252l94 252h189z" />
    <glyph glyph-name="z" unicode="z" horiz-adv-x="505" 
d="M391 696l-178 -556h171l-2 -140h-369l176 561l-177 -1l1 136h378z" />
    <glyph glyph-name="bar" unicode="|" horiz-adv-x="177" 
d="M127 -94h-115v886h114z" />
    <glyph glyph-name="exclamdown" unicode="&#xa1;" horiz-adv-x="188" 
d="M12 573v123h125v-123h-125zM12 0l2 528h123l1 -528h-126z" />
    <glyph glyph-name="questiondown" unicode="&#xbf;" 
d="M496 558h-157l-1 138h158v-138zM496 213v-132q0 -10 -1 -19t-4 -17q-5 -15 -15 -25q-10 -11 -24 -15q-8 -3 -17.5 -4t-19.5 -1h-322q-10 0 -19 1t-17 4q-8 2 -14 6t-11 9t-8.5 11.5t-6.5 13.5q-5 18 -5 36v264q0 10 1 19t4 17q5 15 15 25q11 10 24 15q8 3 17.5 4t19.5 1
h245v81h155v-136q0 -19 -5 -32q-5 -15 -15 -25t-24 -15q-6 -2 -12.5 -3t-24 -1.5t-52.5 -0.5h-99l-75 -1h-20v-12v0l1 -146h173v78h156z" />
    <glyph glyph-name="Agrave" unicode="&#xc0;" horiz-adv-x="545" 
d="M75 918h160l93 -144h-167zM191 116q-1 -5 -3 -20t-4.5 -33.5t-5 -36t-4.5 -26.5h-162v2l153 694h177l153 -694v-2h-162q-2 19 -6 48.5t-10 67.5h-126zM213 232h81q-7 40 -17 100.5t-23 139.5q-4 -20 -8 -45t-9 -55z" />
    <glyph glyph-name="Aacute" unicode="&#xc1;" 
d="M171 774l93 144h160l-86 -144h-167zM191 116q-1 -5 -3 -20t-4.5 -33.5t-5 -36t-4.5 -26.5h-162v2l153 694h177l153 -694v-2h-162q-2 19 -6 48.5t-10 67.5h-126zM213 232h81q-7 40 -17 100.5t-23 139.5q-4 -20 -8 -45t-9 -55z" />
    <glyph glyph-name="Acircumflex" unicode="&#xc2;" horiz-adv-x="555" 
d="M167 760l-50 62l133 98l138 -96l-46 -64l-91 67zM191 116q-1 -5 -3 -20t-4.5 -33.5t-5 -36t-4.5 -26.5h-162v2l153 694h177l153 -694v-2h-162q-2 19 -6 48.5t-10 67.5h-126zM213 232h81q-7 40 -17 100.5t-23 139.5q-4 -20 -8 -45t-9 -55z" />
    <glyph glyph-name="Adieresis" unicode="&#xc4;" horiz-adv-x="555" 
d="M161 752q23 0 38.5 15.5t15.5 38.5t-15.5 38.5t-38.5 15.5t-38.5 -15.5t-15.5 -38.5t15.5 -38.5t38.5 -15.5zM338 752q23 0 38.5 15.5t15.5 38.5t-15.5 38.5t-38.5 15.5t-38.5 -15.5t-15.5 -38.5t15.5 -38.5t38.5 -15.5zM191 116q-1 -5 -3 -20t-4.5 -33.5t-5 -36
t-4.5 -26.5h-162v2l153 694h177l153 -694v-2h-162q-2 19 -6 48.5t-10 67.5h-126zM213 232h81q-7 40 -17 100.5t-23 139.5q-4 -20 -8 -45t-9 -55z" />
    <glyph glyph-name="AE" unicode="&#xc6;" horiz-adv-x="788" 
d="M728 641v-80h-232v-134h213v-116h-213v-175h232v-136l-387 -1v1h-8q-2 19 -6 48.5t-10 67.5h-126q-1 -5 -3 -20t-4.5 -33.5t-5 -36t-4.5 -26.5h-162v2l153 694h176v1h387v-56zM294 232q-7 40 -17 100.5t-23 139.5q-4 -20 -8 -45t-9 -55l-24 -140h81z" />
    <glyph glyph-name="Egrave" unicode="&#xc8;" horiz-adv-x="459" 
d="M75 918h160l93 -144h-167zM12 696h387v-136h-232v-134h213v-116h-213v-175h232v-135h-387v696z" />
    <glyph glyph-name="Eacute" unicode="&#xc9;" 
d="M117 774l93 144h160l-86 -144h-167zM12 696h387v-56v-80h-232v-134h213v-116h-213v-175h232v-135h-387v696z" />
    <glyph glyph-name="Ecircumflex" unicode="&#xca;" horiz-adv-x="459" 
d="M122 760l-50 62l133 98l138 -96l-46 -64l-91 67zM12 696h387v-56v-80h-232v-134h213v-116h-213v-175h232v-135h-387v696z" />
    <glyph glyph-name="Edieresis" unicode="&#xcb;" horiz-adv-x="459" 
d="M110 752q23 0 38.5 15.5t15.5 38.5t-15.5 38.5t-38.5 15.5t-38.5 -15.5t-15.5 -38.5t15.5 -38.5t38.5 -15.5zM287 752q23 0 38.5 15.5t15.5 38.5t-15.5 38.5t-38.5 15.5t-38.5 -15.5t-15.5 -38.5t15.5 -38.5t38.5 -15.5zM12 696h387v-136h-232v-134h213v-116h-213v-175
h232v-135h-387v696z" />
    <glyph glyph-name="Igrave" unicode="&#xcc;" horiz-adv-x="319" 
d="M12 918h160l93 -144h-167zM269 0h-174v696h173z" />
    <glyph glyph-name="Iacute" unicode="&#xcd;" horiz-adv-x="318" 
d="M15 774l93 144h160l-86 -144h-167zM186 0h-174v696h173z" />
    <glyph glyph-name="Icircumflex" unicode="&#xce;" horiz-adv-x="333" 
d="M62 760l-50 62l134 98l137 -96l-46 -64l-90 67zM239 0h-174v696h173z" />
    <glyph glyph-name="Idieresis" unicode="&#xcf;" horiz-adv-x="347" 
d="M66 752q23 0 38.5 15.5t15.5 38.5t-15.5 38.5t-38.5 15.5t-38.5 -15.5t-15.5 -38.5t15.5 -38.5t38.5 -15.5zM243 752q23 0 38.5 15.5t15.5 38.5t-15.5 38.5t-38.5 15.5t-38.5 -15.5t-15.5 -38.5t15.5 -38.5t38.5 -15.5zM239 0h-174v696h173z" />
    <glyph glyph-name="Eth" unicode="&#xd0;" horiz-adv-x="557" 
d="M492 651q4 -14 4.5 -28t0.5 -24v-518q0 -18 -5 -36q-3 -7 -6.5 -13.5t-8.5 -11.5t-11 -9t-14 -6q-8 -3 -17 -4t-19 -1h-402l-1 272h-6v123h6l-1 301h404q10 0 19 -1t17 -4q8 -2 14 -6t11 -9t8.5 -11.5t6.5 -13.5zM341 135l-3 425h-170v-165h49v-123h-49v-137h173z" />
    <glyph glyph-name="Ograve" unicode="&#xd2;" 
d="M75 918h160l93 -144h-167zM491 651q5 -18 5 -36v-534q0 -18 -5 -36q-3 -7 -6.5 -13.5t-8.5 -11.5t-11 -9t-14 -6q-8 -3 -17 -4t-19 -1h-322q-10 0 -19 1t-17 4q-8 2 -14 6t-11 9t-8.5 11.5t-6.5 13.5q-5 18 -5 36v534q0 18 5 36q3 7 6.5 13.5t8.5 11.5t11 9t14 6
q8 3 17 4t19 1h322q10 0 19 -1t17 -4q8 -2 14 -6t11 -9t8.5 -11.5t6.5 -13.5zM340 135v425h-173v-425h14h19h122h18z" />
    <glyph glyph-name="Oacute" unicode="&#xd3;" 
d="M167 774l93 144h160l-86 -144h-167zM491 651q5 -18 5 -36v-534q0 -18 -5 -36q-3 -7 -6.5 -13.5t-8.5 -11.5t-11 -9t-14 -6q-8 -3 -17 -4t-19 -1h-322q-10 0 -19 1t-17 4q-8 2 -14 6t-11 9t-8.5 11.5t-6.5 13.5q-5 18 -5 36v534q0 18 5 36q3 7 6.5 13.5t8.5 11.5t11 9
t14 6q8 3 17 4t19 1h322q10 0 19 -1t17 -4q8 -2 14 -6t11 -9t8.5 -11.5t6.5 -13.5zM340 135v425h-173v-425h14h19h122h18z" />
    <glyph glyph-name="Ocircumflex" unicode="&#xd4;" 
d="M168 760l-50 62l133 98l138 -96l-46 -64l-91 67zM491 651q5 -18 5 -36v-534q0 -18 -5 -36q-3 -7 -6.5 -13.5t-8.5 -11.5t-11 -9t-14 -6q-8 -3 -17 -4t-19 -1h-322q-10 0 -19 1t-17 4q-8 2 -14 6t-11 9t-8.5 11.5t-6.5 13.5q-5 18 -5 36v534q0 18 5 36q3 7 6.5 13.5
t8.5 11.5t11 9t14 6q8 3 17 4t19 1h322q10 0 19 -1t17 -4q8 -2 14 -6t11 -9t8.5 -11.5t6.5 -13.5zM340 135v425h-173v-425h14h19h122h18z" />
    <glyph glyph-name="Odieresis" unicode="&#xd6;" horiz-adv-x="556" 
d="M169 752q23 0 38.5 15.5t15.5 38.5t-15.5 38.5t-38.5 15.5t-38.5 -15.5t-15.5 -38.5t15.5 -38.5t38.5 -15.5zM346 752q23 0 38.5 15.5t15.5 38.5t-15.5 38.5t-38.5 15.5t-38.5 -15.5t-15.5 -38.5t15.5 -38.5t38.5 -15.5zM491 651q5 -18 5 -36v-534q0 -18 -5 -36
q-3 -7 -6.5 -13.5t-8.5 -11.5t-11 -9t-14 -6q-8 -3 -17 -4t-19 -1h-322q-10 0 -19 1t-17 4q-8 2 -14 6t-11 9t-8.5 11.5t-6.5 13.5q-5 18 -5 36v534q0 18 5 36q3 7 6.5 13.5t8.5 11.5t11 9t14 6q8 3 17 4t19 1h322q10 0 19 -1t17 -4q8 -2 14 -6t11 -9t8.5 -11.5t6.5 -13.5z
M340 135v425h-173v-425h14h19h122h18z" />
    <glyph glyph-name="Oslash" unicode="&#xd8;" horiz-adv-x="556" 
d="M491 651q5 -18 5 -36v-534q0 -18 -5 -36q-3 -7 -6.5 -13.5t-8.5 -11.5t-11 -9t-14 -6q-8 -3 -17 -4t-19 -1h-340v1q-10 1 -18 4q-8 2 -14 6t-11 9t-8.5 11.5t-6.5 13.5q-5 18 -5 36v534q0 18 5 36q3 7 6.5 13.5t8.5 11.5t11 9t14 6q8 3 17 4t19 1h331q16 -1 27 -5
q8 -2 14 -6t11 -9t8.5 -11.5t6.5 -13.5zM233 560h-66v-233zM340 135v242l-64 -242h46h18z" />
    <glyph glyph-name="Ugrave" unicode="&#xd9;" 
d="M75 918h160l93 -144h-167zM340 170l-3 526h159v-615q0 -10 -1 -19t-4 -17q-5 -15 -15 -25t-24 -15q-8 -3 -22.5 -4t-24.5 -1h-302q-10 0 -24 1t-22 4q-8 2 -14 6t-11 9t-8.5 11.5t-6.5 13.5q-5 18 -5 36v615h149l6 -561h13h129h13h18v35z" />
    <glyph glyph-name="Uacute" unicode="&#xda;" 
d="M167 774l93 144h160l-86 -144h-167zM340 170l-3 526h159v-615q0 -10 -1 -19t-4 -17q-5 -15 -15 -25t-24 -15q-8 -3 -22.5 -4t-24.5 -1h-302q-10 0 -24 1t-22 4q-8 2 -14 6t-11 9t-8.5 11.5t-6.5 13.5q-5 18 -5 36v615h149l6 -561h13h129h13h18v35z" />
    <glyph glyph-name="Ucircumflex" unicode="&#xdb;" horiz-adv-x="556" 
d="M168 760l-50 62l133 98l138 -96l-46 -64l-91 67zM340 170l-3 526h159v-615q0 -10 -1 -19t-4 -17q-5 -15 -15 -25t-24 -15q-8 -3 -22.5 -4t-24.5 -1h-302q-10 0 -24 1t-22 4q-8 2 -14 6t-11 9t-8.5 11.5t-6.5 13.5q-5 18 -5 36v615h149l6 -561h173v35z" />
    <glyph glyph-name="Udieresis" unicode="&#xdc;" 
d="M164 752q23 0 38.5 15.5t15.5 38.5t-15.5 38.5t-38.5 15.5t-38.5 -15.5t-15.5 -38.5t15.5 -38.5t38.5 -15.5zM341 752q23 0 38.5 15.5t15.5 38.5t-15.5 38.5t-38.5 15.5t-38.5 -15.5t-15.5 -38.5t15.5 -38.5t38.5 -15.5zM340 170l-3 526h159v-615q0 -10 -1 -19t-4 -17
q-5 -15 -15 -25t-24 -15q-8 -3 -22.5 -4t-24.5 -1h-302q-10 0 -24 1t-22 4q-8 2 -14 6t-11 9t-8.5 11.5t-6.5 13.5q-5 18 -5 36v615h149l6 -561h173v35z" />
    <glyph glyph-name="Yacute" unicode="&#xdd;" 
d="M174 774l93 144h160l-86 -144h-167zM335 234l-19 -234h-174l39 232l-181 464h176l82 -252l94 252h189z" />
    <glyph glyph-name="agrave" unicode="&#xe0;" 
d="M75 918h160l93 -144h-167zM191 116q-1 -5 -3 -20t-4.5 -33.5t-5 -36t-4.5 -26.5h-162v2l153 694h177l153 -694v-2h-162q-2 19 -6 48.5t-10 67.5h-126zM213 232h81l-40 240z" />
    <glyph glyph-name="aacute" unicode="&#xe1;" horiz-adv-x="555" 
d="M171 774l93 144h160l-86 -144h-167zM191 116q-1 -5 -3 -20t-4.5 -33.5t-5 -36t-4.5 -26.5h-162v2l153 694h177l153 -694v-2h-162q-2 19 -6 48.5t-10 67.5h-126zM213 232h81q-7 40 -17 100.5t-23 139.5q-4 -20 -8 -45t-9 -55z" />
    <glyph glyph-name="acircumflex" unicode="&#xe2;" horiz-adv-x="555" 
d="M167 760l-50 62l133 98l138 -96l-46 -64l-91 67zM191 116q-1 -5 -3 -20t-4.5 -33.5t-5 -36t-4.5 -26.5h-162v2l153 694h177l153 -694v-2h-162q-2 19 -6 48.5t-10 67.5h-126zM213 232h81q-7 40 -17 100.5t-23 139.5q-4 -20 -8 -45t-9 -55z" />
    <glyph glyph-name="adieresis" unicode="&#xe4;" horiz-adv-x="555" 
d="M75 918h160l93 -144h-167zM191 116q-1 -5 -3 -20t-4.5 -33.5t-5 -36t-4.5 -26.5h-162v2l153 694h177l153 -694v-2h-162q-2 19 -6 48.5t-10 67.5h-126zM213 232h81q-7 40 -17 100.5t-23 139.5q-4 -20 -8 -45t-9 -55z" />
    <glyph glyph-name="ae" unicode="&#xe6;" horiz-adv-x="788" 
d="M728 641v-80h-232v-134h213v-116h-213v-175h232v-136l-387 -1v1h-8q-2 19 -6 48.5t-10 67.5h-126q-1 -5 -3 -20t-4.5 -33.5t-5 -36t-4.5 -26.5h-162v2l153 694h176v1h387v-56zM294 232q-7 40 -17 100.5t-23 139.5q-4 -20 -8 -45t-9 -55l-24 -140h81z" />
    <glyph glyph-name="egrave" unicode="&#xe8;" horiz-adv-x="459" 
d="M75 918h160l93 -144h-167zM12 696h387v-136h-232v-134h213v-116h-213v-175h232v-135h-387v696z" />
    <glyph glyph-name="eacute" unicode="&#xe9;" horiz-adv-x="459" 
d="M117 774l93 144h160l-86 -144h-167zM12 696h387v-136h-232v-134h213v-116h-213v-175h232v-135h-387v696z" />
    <glyph glyph-name="ecircumflex" unicode="&#xea;" horiz-adv-x="459" 
d="M122 760l-50 62l133 98l138 -96l-46 -64l-91 67zM12 696h387v-56v-80h-232v-134h213v-116h-213v-175h232v-135h-387v696z" />
    <glyph glyph-name="edieresis" unicode="&#xeb;" horiz-adv-x="459" 
d="M110 752q23 0 38.5 15.5t15.5 38.5t-15.5 38.5t-38.5 15.5t-38.5 -15.5t-15.5 -38.5t15.5 -38.5t38.5 -15.5zM287 752q23 0 38.5 15.5t15.5 38.5t-15.5 38.5t-38.5 15.5t-38.5 -15.5t-15.5 -38.5t15.5 -38.5t38.5 -15.5zM12 696h387v-136h-232v-134h213v-116h-213v-175
h232v-135h-387v696z" />
    <glyph glyph-name="igrave" unicode="&#xec;" horiz-adv-x="319" 
d="M12 918h160l93 -144h-167zM269 0h-174v696h173z" />
    <glyph glyph-name="iacute" unicode="&#xed;" horiz-adv-x="318" 
d="M15 774l93 144h160l-86 -144h-167zM186 0h-174v696h173z" />
    <glyph glyph-name="icircumflex" unicode="&#xee;" horiz-adv-x="333" 
d="M62 760l-50 62l134 98l137 -96l-46 -64l-90 67zM239 0h-174v696h173z" />
    <glyph glyph-name="idieresis" unicode="&#xef;" horiz-adv-x="347" 
d="M66 752q23 0 38.5 15.5t15.5 38.5t-15.5 38.5t-38.5 15.5t-38.5 -15.5t-15.5 -38.5t15.5 -38.5t38.5 -15.5zM243 752q23 0 38.5 15.5t15.5 38.5t-15.5 38.5t-38.5 15.5t-38.5 -15.5t-15.5 -38.5t15.5 -38.5t38.5 -15.5zM239 0h-174v696h173z" />
    <glyph glyph-name="eth" unicode="&#xf0;" horiz-adv-x="557" 
d="M492 651q4 -14 4.5 -28t0.5 -24v-518q0 -18 -5 -36q-3 -7 -6.5 -13.5t-8.5 -11.5t-11 -9t-14 -6q-8 -3 -17 -4t-19 -1h-402l-1 272h-6v123h6l-1 301h404q10 0 19 -1t17 -4q8 -2 14 -6t11 -9t8.5 -11.5t6.5 -13.5zM341 135l-3 425h-170v-165h49v-123h-49v-137h173z" />
    <glyph glyph-name="ograve" unicode="&#xf2;" 
d="M75 918h160l93 -144h-167zM491 651q5 -18 5 -36v-534q0 -18 -5 -36q-3 -7 -6.5 -13.5t-8.5 -11.5t-11 -9t-14 -6q-8 -3 -17 -4t-19 -1h-322q-10 0 -19 1t-17 4q-8 2 -14 6t-11 9t-8.5 11.5t-6.5 13.5q-5 18 -5 36v534q0 18 5 36q3 7 6.5 13.5t8.5 11.5t11 9t14 6
q8 3 17 4t19 1h322q10 0 19 -1t17 -4q8 -2 14 -6t11 -9t8.5 -11.5t6.5 -13.5zM340 135v425h-173v-425h14h19h122h18z" />
    <glyph glyph-name="oacute" unicode="&#xf3;" horiz-adv-x="556" 
d="M162 774l93 144h160l-86 -144h-167zM491 651q5 -18 5 -36v-534q0 -18 -5 -36q-3 -7 -6.5 -13.5t-8.5 -11.5t-11 -9t-14 -6q-8 -3 -17 -4t-19 -1h-322q-10 0 -19 1t-17 4q-8 2 -14 6t-11 9t-8.5 11.5t-6.5 13.5q-5 18 -5 36v534q0 18 5 36q3 7 6.5 13.5t8.5 11.5t11 9
t14 6q8 3 17 4t19 1h322q10 0 19 -1t17 -4q8 -2 14 -6t11 -9t8.5 -11.5t6.5 -13.5zM340 135v425h-173v-425h14h19h122h18z" />
    <glyph glyph-name="ocircumflex" unicode="&#xf4;" horiz-adv-x="556" 
d="M168 760l-50 62l133 98l138 -96l-46 -64l-91 67zM491 651q5 -18 5 -36v-534q0 -18 -5 -36q-3 -7 -6.5 -13.5t-8.5 -11.5t-11 -9t-14 -6q-8 -3 -17 -4t-19 -1h-322q-10 0 -19 1t-17 4q-8 2 -14 6t-11 9t-8.5 11.5t-6.5 13.5q-5 18 -5 36v534q0 18 5 36q3 7 6.5 13.5
t8.5 11.5t11 9t14 6q8 3 17 4t19 1h322q10 0 19 -1t17 -4q8 -2 14 -6t11 -9t8.5 -11.5t6.5 -13.5zM340 135v425h-173v-425h14h19h122h18z" />
    <glyph glyph-name="odieresis" unicode="&#xf6;" horiz-adv-x="556" 
d="M169 752q23 0 38.5 15.5t15.5 38.5t-15.5 38.5t-38.5 15.5t-38.5 -15.5t-15.5 -38.5t15.5 -38.5t38.5 -15.5zM346 752q23 0 38.5 15.5t15.5 38.5t-15.5 38.5t-38.5 15.5t-38.5 -15.5t-15.5 -38.5t15.5 -38.5t38.5 -15.5zM491 651q5 -18 5 -36v-534q0 -18 -5 -36
q-3 -7 -6.5 -13.5t-8.5 -11.5t-11 -9t-14 -6q-8 -3 -17 -4t-19 -1h-322q-10 0 -19 1t-17 4q-8 2 -14 6t-11 9t-8.5 11.5t-6.5 13.5q-5 18 -5 36v534q0 18 5 36q3 7 6.5 13.5t8.5 11.5t11 9t14 6q8 3 17 4t19 1h322q10 0 19 -1t17 -4q8 -2 14 -6t11 -9t8.5 -11.5t6.5 -13.5z
M340 135v425h-173v-425h14h19h122h18z" />
    <glyph glyph-name="oslash" unicode="&#xf8;" horiz-adv-x="556" 
d="M491 651q5 -18 5 -36v-534q0 -18 -5 -36q-3 -7 -6.5 -13.5t-8.5 -11.5t-11 -9t-14 -6q-8 -3 -17 -4t-19 -1h-394l7 25q-4 4 -6.5 9.5t-4.5 10.5q-5 18 -5 36v534q0 18 5 36q3 7 6.5 13.5t8.5 11.5t11 9t14 6q8 3 17 4t19 1h322q10 0 19 -1t17 -4q8 -2 14 -6t11 -9
t8.5 -11.5t6.5 -13.5zM179 560h-12v-42zM334 560l-112 -425h118v425h-6z" />
    <glyph glyph-name="ugrave" unicode="&#xf9;" 
d="M75 918h160l93 -144h-167zM340 170l-3 526h159v-615q0 -10 -1 -19t-4 -17q-5 -15 -15 -25t-24 -15q-8 -3 -22.5 -4t-24.5 -1h-302q-10 0 -24 1t-22 4q-8 2 -14 6t-11 9t-8.5 11.5t-6.5 13.5q-5 18 -5 36v615h149l6 -561h13h129h13h18v35z" />
    <glyph glyph-name="uacute" unicode="&#xfa;" 
d="M167 774l93 144h160l-86 -144h-167zM340 170l-3 526h159v-615q0 -10 -1 -19t-4 -17q-5 -15 -15 -25t-24 -15q-8 -3 -22.5 -4t-24.5 -1h-302q-10 0 -24 1t-22 4q-8 2 -14 6t-11 9t-8.5 11.5t-6.5 13.5q-5 18 -5 36v615h149l6 -561h13h129h13h18v35z" />
    <glyph glyph-name="ucircumflex" unicode="&#xfb;" horiz-adv-x="556" 
d="M168 760l-50 62l133 98l138 -96l-46 -64l-91 67zM340 170l-3 526h159v-615q0 -10 -1 -19t-4 -17q-5 -15 -15 -25t-24 -15q-8 -3 -22.5 -4t-24.5 -1h-302q-10 0 -24 1t-22 4q-8 2 -14 6t-11 9t-8.5 11.5t-6.5 13.5q-5 18 -5 36v615h149l6 -561h173v35z" />
    <glyph glyph-name="udieresis" unicode="&#xfc;" horiz-adv-x="556" 
d="M164 752q23 0 38.5 15.5t15.5 38.5t-15.5 38.5t-38.5 15.5t-38.5 -15.5t-15.5 -38.5t15.5 -38.5t38.5 -15.5zM341 752q23 0 38.5 15.5t15.5 38.5t-15.5 38.5t-38.5 15.5t-38.5 -15.5t-15.5 -38.5t15.5 -38.5t38.5 -15.5zM340 170l-3 526h159v-615q0 -10 -1 -19t-4 -17
q-5 -15 -15 -25t-24 -15q-8 -3 -22.5 -4t-24.5 -1h-302q-10 0 -24 1t-22 4q-8 2 -14 6t-11 9t-8.5 11.5t-6.5 13.5q-5 18 -5 36v615h149l6 -561h173v35z" />
    <glyph glyph-name="yacute" unicode="&#xfd;" 
d="M174 774l93 144h160l-86 -144h-167zM335 234l-19 -234h-174l39 232l-181 464h176l82 -252l94 252h189z" />
    <glyph glyph-name="ydieresis" unicode="&#xff;" 
d="M166 752q-23 0 -38.5 15.5t-15.5 38.5t15.5 38.5t38.5 15.5t38.5 -15.5t15.5 -38.5t-15.5 -38.5t-38.5 -15.5zM343 752q-23 0 -38.5 15.5t-15.5 38.5t15.5 38.5t38.5 15.5t38.5 -15.5t15.5 -38.5t-15.5 -38.5t-38.5 -15.5zM335 234l-19 -234h-174l39 232l-181 464h176
l82 -252l94 252h189z" />
    <glyph glyph-name="IJ" unicode="&#x132;" horiz-adv-x="705" 
d="M186 0h-174v696h173zM238 213h156v-78h94v561h154q2 -147 2.5 -248.5t0.5 -167.5t-0.5 -102.5t-0.5 -54t-0.5 -21.5t-0.5 -5v-16q0 -18 -5 -36q-3 -7 -6.5 -13.5t-8.5 -11.5t-11 -9t-14 -6q-8 -3 -17 -4t-19 -1h-243q-10 0 -19.5 1t-17.5 4q-13 5 -24 15q-10 10 -15 25
q-3 8 -4 17t-1 19v132z" />
    <glyph glyph-name="ij" unicode="&#x133;" horiz-adv-x="705" 
d="M12 0v696h173l1 -696h-73h-101zM238 213h156v-78h94v561h154q2 -147 2.5 -248.5t0.5 -167.5t-0.5 -102.5t-0.5 -54t-0.5 -21.5t-0.5 -5v-16q0 -18 -5 -36q-3 -7 -6.5 -13.5t-8.5 -11.5t-11 -9t-14 -6q-8 -3 -17 -4t-19 -1h-243q-10 0 -19.5 1t-17.5 4q-13 5 -24 15
q-10 10 -15 25q-3 8 -4 17t-1 19v132z" />
    <glyph glyph-name="Ldot" unicode="&#x13f;" horiz-adv-x="429" 
d="M166 696l1 -556h202l-1 -140h-356v696h154zM314 322q22 0 38 15.5t16 38.5q0 22 -16 38t-38 16q-23 0 -38.5 -16t-15.5 -38q0 -23 15.5 -38.5t38.5 -15.5z" />
    <glyph glyph-name="ldot" unicode="&#x140;" horiz-adv-x="429" 
d="M166 696l1 -556h202l-1 -140h-356v696h154zM314 322q22 0 38 15.5t16 38.5q0 22 -16 38t-38 16q-23 0 -38.5 -16t-15.5 -38q0 -23 15.5 -38.5t38.5 -15.5z" />
    <glyph glyph-name="OE" unicode="&#x152;" horiz-adv-x="790" 
d="M730 640v-80h-232v-134h213v-116h-213v-175h232v-135h-637q-10 0 -19 1t-17 4q-8 2 -14 6t-11 9t-8.5 11.5t-6.5 13.5q-5 18 -5 36v534q0 18 5 36q3 7 6.5 13.5t8.5 11.5t11 9t14 6q8 3 17 4t19 1h637v-56zM167 560v-425h14h19h122h18v425h-173z" />
    <glyph glyph-name="oe" unicode="&#x153;" horiz-adv-x="790" 
d="M730 640v-80h-232v-134h213v-116h-213v-175h232v-135h-637q-10 0 -19 1t-17 4q-8 2 -14 6t-11 9t-8.5 11.5t-6.5 13.5q-5 18 -5 36v534q0 18 5 36q3 7 6.5 13.5t8.5 11.5t11 9t14 6q8 3 17 4t19 1h637v-56zM167 560v-425h14h19h122h18v425h-173z" />
    <glyph glyph-name="Wcircumflex" unicode="&#x174;" horiz-adv-x="726" 
d="M250 760l-50 62l133 98l138 -96l-46 -64l-91 67zM666 696l-71 -696h-146l-116 310l-125 -310h-135l-61 696h165l32 -345l77 249h97l77 -252l44 348h162z" />
    <glyph glyph-name="wcircumflex" unicode="&#x175;" 
d="M250 760l-50 62l133 98l138 -96l-46 -64l-91 67zM666 696l-71 -696h-146l-116 310l-125 -310h-135l-61 696h165l32 -345l77 249h97l77 -252l44 348h162z" />
    <glyph glyph-name="Ycircumflex" unicode="&#x176;" 
d="M127 822l133 98l138 -96l-46 -64l-91 67l-84 -67zM335 234l-19 -234h-174l39 232l-181 464h176l82 -252l94 252h189z" />
    <glyph glyph-name="ycircumflex" unicode="&#x177;" 
d="M127 822l133 98l138 -96l-46 -64l-91 67l-84 -67zM335 234l-19 -234h-174l39 232l-181 464h176l82 -252l94 252h189z" />
    <glyph glyph-name="Ydieresis" unicode="&#x178;" 
d="M166 752q-23 0 -38.5 15.5t-15.5 38.5t15.5 38.5t38.5 15.5t38.5 -15.5t15.5 -38.5t-15.5 -38.5t-38.5 -15.5zM343 752q-23 0 -38.5 15.5t-15.5 38.5t15.5 38.5t38.5 15.5t38.5 -15.5t15.5 -38.5t-15.5 -38.5t-38.5 -15.5zM335 234l-19 -234h-174l39 232l-181 464h176
l82 -252l94 252h189z" />
    <glyph glyph-name="Alpha" unicode="&#x391;" horiz-adv-x="545" 
d="M191 116q-1 -5 -3 -20t-4.5 -33.5t-5 -36t-4.5 -26.5h-162v2l153 694h177l153 -694v-2h-162q-2 19 -6 48.5t-10 67.5h-126zM213 232h81q-7 40 -17 100.5t-23 139.5q-4 -20 -8 -45t-9 -55z" />
    <glyph glyph-name="Beta" unicode="&#x392;" horiz-adv-x="497" 
d="M14 0l-2 696h342q20 0 36 -4.5t30 -19.5q12 -13 13.5 -30.5t1.5 -29.5v-122q0 -19 -1.5 -43t-21.5 -40q-20 -14 -33 -23.5t-26 -17.5q19 -10 35.5 -17.5t28.5 -20.5q13 -11 16.5 -35t3.5 -38v-173q0 -41 -20 -61q-18 -21 -61 -21h-342zM166 560v-135h116v135h-116z
M166 135h115l1 174h-21h-36.5h-36.5h-22v-174z" />
    <glyph glyph-name="Gamma" unicode="&#x393;" horiz-adv-x="563" 
d="M533 556h-367v-556h-154v696h521v-140z" />
    <glyph glyph-name="Delta" unicode="&#x394;" 
d="M180 0h-180l160 696h210l160 -696h-171l-89 426zM332 131l-125 -2l-27 -129h179z" />
    <glyph glyph-name="Epsilon" unicode="&#x395;" horiz-adv-x="459" 
d="M12 696h387v-56v-80h-232v-134h213v-116h-213v-175h232v-135h-387v696z" />
    <glyph glyph-name="Zeta" unicode="&#x396;" horiz-adv-x="424" 
d="M401 696l-178 -556h171l-2 -140h-203h-50h-71h-19h-26l176 561l-177 -1l1 136h248h130z" />
    <glyph glyph-name="Eta" unicode="&#x397;" horiz-adv-x="594" 
d="M378 289h-213v-289h-153v696h153v-270h213v270h156l-2 -696h-154v289z" />
    <glyph glyph-name="Theta" unicode="&#x398;" horiz-adv-x="556" 
d="M491 651q5 -18 5 -36v-534q0 -18 -5 -36q-3 -7 -6.5 -13.5t-8.5 -11.5t-11 -9t-14 -6q-8 -3 -17 -4t-19 -1h-322q-10 0 -19 1t-17 4q-8 2 -14 6t-11 9t-8.5 11.5t-6.5 13.5q-5 18 -5 36v534q0 18 5 36q3 7 6.5 13.5t8.5 11.5t11 9t14 6q8 3 17 4t19 1h322q10 0 19 -1
t17 -4q8 -2 14 -6t11 -9t8.5 -11.5t6.5 -13.5zM340 135v425h-173v-425h14h19h122h18zM342 428h-178l2 -152h176v152z" />
    <glyph glyph-name="Iota" unicode="&#x399;" horiz-adv-x="226" 
d="M186 0h-174v696h173z" />
    <glyph glyph-name="Kappa" unicode="&#x39a;" horiz-adv-x="497" 
d="M282 0l-117 275v-275h-153v696h154l-1 -254l98 254h154v-6l-135 -323l155 -366q0 -2 -3 -2t-5 1q-7 1 -7 0h-140z" />
    <glyph glyph-name="Lambda" unicode="&#x39b;" 
d="M180 0h-180l160 696h210l160 -696h-170l-90 426z" />
    <glyph glyph-name="Mu" unicode="&#x39c;" horiz-adv-x="594" 
d="M388 696h146v-696h-46h-34h-28h-27v348l-77 -252h-97l-77 249v-345h-49.5h-36h-27h-23.5v696h135l125 -310z" />
    <glyph glyph-name="Nu" unicode="&#x39d;" horiz-adv-x="611" 
d="M396 329v367h155v-696h-135l-235 368v-368h-151v696h134z" />
    <glyph glyph-name="Xi" unicode="&#x39e;" horiz-adv-x="561" 
d="M501 560h-489v136h489v-136zM477 277h-441v136h441v-136zM501 0h-489v136h489v-136z" />
    <glyph glyph-name="Omicron" unicode="&#x39f;" horiz-adv-x="556" 
d="M491 651q5 -18 5 -36v-534q0 -18 -5 -36q-3 -7 -6.5 -13.5t-8.5 -11.5t-11 -9t-14 -6q-8 -3 -17 -4t-19 -1h-322q-10 0 -19 1t-17 4q-8 2 -14 6t-11 9t-8.5 11.5t-6.5 13.5q-5 18 -5 36v534q0 18 5 36q3 7 6.5 13.5t8.5 11.5t11 9t14 6q8 3 17 4t19 1h322q10 0 19 -1
t17 -4q8 -2 14 -6t11 -9t8.5 -11.5t6.5 -13.5zM340 135v425h-173v-425h14h19h122h18z" />
    <glyph glyph-name="Pi" unicode="&#x3a0;" 
d="M543 561v-561h-152v560h-216v-562h-155v698h524v-135h-1z" />
    <glyph glyph-name="Rho" unicode="&#x3a1;" horiz-adv-x="510" 
d="M167 132v-132h-63h-92v696h353q21 0 37 -1t26 -12q22 -19 22 -60v-314q0 -40 -22 -62q-23 -20 -64 -20h-83h-114v-95zM167 560v-212h136v212h-136z" />
    <glyph glyph-name="Sigma" unicode="&#x3a3;" 
d="M29 696h151l99 -337l-121 -359h-146v6l125 354l-108 334v2zM499 696h-319l40 -136h279v136zM502 136h-298l-46 -136h344v136z" />
    <glyph glyph-name="Tau" unicode="&#x3a4;" horiz-adv-x="571" 
d="M284 0h-101v234v326h-171v58v78h519v-55v-81h-174v-232v-328h-73z" />
    <glyph glyph-name="Upsilon" unicode="&#x3a5;" 
d="M335 234l-19 -234h-174l39 232l-181 464h176l82 -252l94 252h189z" />
    <glyph glyph-name="Phi" unicode="&#x3a6;" 
d="M532 651q5 -18 5 -36v-534q0 -18 -5 -36q-3 -7 -6.5 -13.5t-8.5 -11.5t-11 -9t-14 -6q-8 -3 -17 -4t-19 -1h-109v-66h-83v66h-130q-10 0 -19 1t-17 4q-8 2 -14 6t-11 9t-8.5 11.5t-6.5 13.5q-5 18 -5 36v534q0 18 5 36q3 7 6.5 13.5t8.5 11.5t11 9t14 6q8 3 17 4t19 1
h122v66h83v-66h117q10 0 19 -1t17 -4q8 -2 14 -6t11 -9t8.5 -11.5t6.5 -13.5zM208 560v-425h173v425h-173z" />
    <glyph glyph-name="Chi" unicode="&#x3a7;" horiz-adv-x="527" 
d="M487 0h-151l-83 266l-95 -266h-146v6l125 354l-108 330v6h151l70 -270v-1l82 271h137v-6l-107 -330l125 -354v-6z" />
    <glyph glyph-name="Psi" unicode="&#x3a8;" 
d="M537 242q0 -10 -1 -19t-4 -17q-5 -15 -15 -25t-24 -15q-8 -3 -17.5 -4t-19.5 -1h-121l1 -161h-125v161h-118q-10 0 -19 1t-17 4q-8 2 -14 6t-11 9t-8.5 11.5t-6.5 13.5q-5 18 -5 36v454h149l6 -400h43l-3 400h127l2 -400h45l-3 400h159v-454z" />
    <glyph glyph-name="Omega" unicode="&#x3a9;" horiz-adv-x="706" 
d="M412 0l3 526v35h-173l-6 -561h-224v138h75v477q0 18 5 36q3 7 6.5 13.5t8.5 11.5t11 9t14 6q8 3 17 4t19 1h322q10 0 19.5 -1t17.5 -4q14 -4 24 -15q10 -10 15 -25q3 -8 4 -17t1 -19v-477h84l1 -138h-244z" />
    <glyph glyph-name="alpha" unicode="&#x3b1;" horiz-adv-x="545" 
d="M191 116q-1 -5 -3 -20t-4.5 -33.5t-5 -36t-4.5 -26.5h-162v2l153 694h177l153 -694v-2h-162q-2 19 -6 48.5t-10 67.5h-126zM213 232h81q-7 40 -17 100.5t-23 139.5q-4 -20 -8 -45t-9 -55z" />
    <glyph glyph-name="beta" unicode="&#x3b2;" horiz-adv-x="497" 
d="M14 0l-2 696h342q20 0 36 -4.5t30 -19.5q12 -13 13.5 -30.5t1.5 -29.5v-122q0 -19 -1.5 -43t-21.5 -40q-20 -14 -33 -23.5t-26 -17.5q19 -10 35.5 -17.5t28.5 -20.5q13 -11 16.5 -35t3.5 -38v-173q0 -41 -20 -61q-18 -21 -61 -21h-342zM166 560v-135h116v135h-116z
M166 135h115l1 174h-21h-36.5h-36.5h-22v-174z" />
    <glyph glyph-name="gamma" unicode="&#x3b3;" horiz-adv-x="563" 
d="M533 556h-367v-556h-154v696h521v-140z" />
    <glyph glyph-name="delta" unicode="&#x3b4;" 
d="M190 0h-190l160 696h210l160 -696h-180l-80 416zM325 131h-110l-25 -131h160z" />
    <glyph glyph-name="epsilon" unicode="&#x3b5;" horiz-adv-x="459" 
d="M12 696h387v-56v-80h-232v-134h213v-116h-213v-175h232v-135h-387v696z" />
    <glyph glyph-name="zeta" unicode="&#x3b6;" horiz-adv-x="505" 
d="M401 696l-178 -556h171l-2 -140h-369l176 561l-177 -1l1 136h378z" />
    <glyph glyph-name="eta" unicode="&#x3b7;" horiz-adv-x="594" 
d="M378 289h-213v-289h-153v696h153v-270h213v270h156l-2 -696h-154v289z" />
    <glyph glyph-name="theta" unicode="&#x3b8;" 
d="M491 651q5 -18 5 -36v-534q0 -18 -5 -36q-3 -7 -6.5 -13.5t-8.5 -11.5t-11 -9t-14 -6q-8 -3 -17 -4t-19 -1h-322q-10 0 -19 1t-17 4q-8 2 -14 6t-11 9t-8.5 11.5t-6.5 13.5q-5 18 -5 36v534q0 18 5 36q3 7 6.5 13.5t8.5 11.5t11 9t14 6q8 3 17 4t19 1h322q10 0 19 -1
t17 -4q8 -2 14 -6t11 -9t8.5 -11.5t6.5 -13.5zM340 135v425h-173v-425h14h19h122h18zM342 428h-178l2 -152h176v152z" />
    <glyph glyph-name="iota" unicode="&#x3b9;" horiz-adv-x="226" 
d="M186 0h-174v696h173z" />
    <glyph glyph-name="kappa" unicode="&#x3ba;" horiz-adv-x="497" 
d="M282 0l-117 275v-275h-153v696h154l-1 -254l98 254h154v-6l-135 -323l155 -366q0 -2 -3 -2t-5 1q-7 1 -7 0h-140z" />
    <glyph glyph-name="lambda" unicode="&#x3bb;" 
d="M190 0h-190l160 696h210l160 -696h-180l-80 416z" />
    <glyph glyph-name="mu" unicode="&#x3bc;" horiz-adv-x="594" 
d="M388 696h146v-696h-46h-34h-28h-27v348l-77 -252h-97l-77 249v-345h-49.5h-36h-27h-23.5v696h135l125 -310z" />
    <glyph glyph-name="nu" unicode="&#x3bd;" horiz-adv-x="611" 
d="M396 329v367h155v-696h-135l-235 368v-368h-151v696h134z" />
    <glyph glyph-name="xi" unicode="&#x3be;" 
d="M501 560h-489v136h489v-136zM477 277h-441v136h441v-136zM501 0h-489v136h489v-136z" />
    <glyph glyph-name="omicron" unicode="&#x3bf;" horiz-adv-x="556" 
d="M491 651q5 -18 5 -36v-534q0 -18 -5 -36q-3 -7 -6.5 -13.5t-8.5 -11.5t-11 -9t-14 -6q-8 -3 -17 -4t-19 -1h-322q-10 0 -19 1t-17 4q-8 2 -14 6t-11 9t-8.5 11.5t-6.5 13.5q-5 18 -5 36v534q0 18 5 36q3 7 6.5 13.5t8.5 11.5t11 9t14 6q8 3 17 4t19 1h322q10 0 19 -1
t17 -4q8 -2 14 -6t11 -9t8.5 -11.5t6.5 -13.5zM340 135v425h-173v-425h14h19h122h18z" />
    <glyph glyph-name="pi" unicode="&#x3c0;" 
d="M544 561h-1v-561h-152v560h-216v-562h-155v281v282v135h523h1v-135z" />
    <glyph glyph-name="rho" unicode="&#x3c1;" horiz-adv-x="510" 
d="M167 132v-132h-63h-92v696h353q21 0 37 -1t26 -12q22 -19 22 -60v-314q0 -40 -22 -62q-23 -20 -64 -20h-83h-114v-95zM167 560v-212h136v212h-136z" />
    <glyph glyph-name="sigmafinal" unicode="&#x3c2;" 
d="M29 696h151l99 -337l-121 -359h-146v6l125 354l-108 334v2zM499 696h-319l40 -136h279v136zM502 136h-298l-46 -136h344v136z" />
    <glyph glyph-name="tau" unicode="&#x3c4;" horiz-adv-x="571" 
d="M284 0h-101v234v326h-171v58v78h519v-55v-81h-174v-232v-328h-73z" />
    <glyph glyph-name="upsilon" unicode="&#x3c5;" 
d="M335 234l-19 -234h-174l39 232l-181 464h176l82 -252l94 252h189z" />
    <glyph glyph-name="phi" unicode="&#x3c6;" 
d="M532 651q5 -18 5 -36v-534q0 -18 -5 -36q-3 -7 -6.5 -13.5t-8.5 -11.5t-11 -9t-14 -6q-8 -3 -17 -4t-19 -1h-109v-66h-83v66h-130q-10 0 -19 1t-17 4q-8 2 -14 6t-11 9t-8.5 11.5t-6.5 13.5q-5 18 -5 36v534q0 18 5 36q3 7 6.5 13.5t8.5 11.5t11 9t14 6q8 3 17 4t19 1
h122v66h83v-66h117q10 0 19 -1t17 -4q8 -2 14 -6t11 -9t8.5 -11.5t6.5 -13.5zM208 560v-425h173v425h-173z" />
    <glyph glyph-name="chi" unicode="&#x3c7;" horiz-adv-x="527" 
d="M487 0h-151l-83 266l-95 -266h-146v6l125 354l-108 330v6h151l70 -270v-1l82 271h137v-6l-107 -330l125 -354v-6z" />
    <glyph glyph-name="psi" unicode="&#x3c8;" 
d="M537 242q0 -10 -1 -19t-4 -17q-5 -15 -15 -25t-24 -15q-8 -3 -17.5 -4t-19.5 -1h-121l1 -161h-125v161h-118q-10 0 -19 1t-17 4q-8 2 -14 6t-11 9t-8.5 11.5t-6.5 13.5q-5 18 -5 36v454h149l6 -400h43l-3 400h127l2 -400h45v35l-3 365h159v-454z" />
    <glyph glyph-name="omega" unicode="&#x3c9;" 
d="M571 0h-159l3 526v35h-18h-13h-129h-13l-6 -561h-149h-75v138h75v461v16q0 18 5 36q3 7 6.5 13.5t8.5 11.5t11 9t14 6q8 3 17 4t19 1h17h6h299q10 0 19.5 -1t17.5 -4q14 -4 24 -15q10 -10 15 -25q3 -8 4 -17t1 -19v-477h84l1 -138h-85z" />
    <glyph glyph-name="uni0401" unicode="&#x401;" horiz-adv-x="459" 
d="M110 752q23 0 38.5 15.5t15.5 38.5t-15.5 38.5t-38.5 15.5t-38.5 -15.5t-15.5 -38.5t15.5 -38.5t38.5 -15.5zM287 752q23 0 38.5 15.5t15.5 38.5t-15.5 38.5t-38.5 15.5t-38.5 -15.5t-15.5 -38.5t15.5 -38.5t38.5 -15.5zM12 696h387v-56v-80h-232v-134h213v-116h-213
v-175h232v-135h-387v696z" />
    <glyph glyph-name="uni0410" unicode="&#x410;" horiz-adv-x="545" 
d="M191 116q-1 -5 -3 -20t-4.5 -33.5t-5 -36t-4.5 -26.5h-162v2l153 694h177l153 -694v-2h-162q-2 19 -6 48.5t-10 67.5h-126zM213 232h81q-7 40 -17 100.5t-23 139.5q-4 -20 -8 -45t-9 -55z" />
    <glyph glyph-name="uni0411" unicode="&#x411;" horiz-adv-x="505" 
d="M424 453q21 -21 21 -61v-310q0 -21 -5 -36t-15 -26q-23 -20 -63 -20h-350v696h327v-77h-173v-146h195q43 0 63 -20zM281 137v212h-115v-212h115z" />
    <glyph glyph-name="uni0412" unicode="&#x412;" horiz-adv-x="497" 
d="M14 0l-2 696h342q20 0 36 -4.5t30 -19.5q12 -13 13.5 -30.5t1.5 -29.5v-122q0 -19 -1.5 -43t-21.5 -40q-20 -14 -33 -23.5t-26 -17.5q19 -10 35.5 -17.5t28.5 -20.5q13 -11 16.5 -35t3.5 -38v-121v-15v-10v-27q0 -41 -20 -61q-18 -21 -61 -21h-142h-200zM166 425h33h83
v29v53v53h-116v-45v-90zM166 135h49h66v32t1 40v102q-18 -1 -48 0h-33h-35v-33v-40v-101z" />
    <glyph glyph-name="uni0413" unicode="&#x413;" horiz-adv-x="563" 
d="M533 556h-367v-556h-154v696h521v-140z" />
    <glyph glyph-name="uni0414" unicode="&#x414;" horiz-adv-x="552" 
d="M123 696h369v-737h-155v41h-175v-41h-150v41l208 560h-97v136zM186 56h150l1 425z" />
    <glyph glyph-name="uni0415" unicode="&#x415;" horiz-adv-x="459" 
d="M12 696h387v-56v-80h-232v-134h213v-116h-213v-175h232v-135h-387v696z" />
    <glyph glyph-name="uni0416" unicode="&#x416;" horiz-adv-x="744" 
d="M684 690l-135 -323l155 -366q0 -3 -8 -1q-7 1 -7 0h-140l-112 260v-260h-158v260l-113 -260h-139q0 2 -8 0q-1 -1 -4 -1t-3 2l154 366l-135 323v6h155l93 -238v238h158v-238l93 238h154v-6z" />
    <glyph glyph-name="uni0417" unicode="&#x417;" horiz-adv-x="556" 
d="M471 360l25 -25v-254q0 -18 -5 -36q-3 -7 -6.5 -13.5t-8.5 -11.5t-11 -9t-14 -6q-8 -3 -22 -4t-24 -1h-303q-10 0 -24 1t-22 4q-13 5 -24 15q-10 10 -15 25q-3 8 -4 17t-1 19v132h156v-78h173v156h-166v133h166v136h-173v-77h-156v132q0 10 1 19t4 17q5 15 15 25
q11 11 24 15q8 3 21 4t23 1h308q10 0 22.5 -1t20.5 -4q8 -2 14 -6t11 -9t8.5 -11.5t6.5 -13.5q5 -18 5 -36v-229z" />
    <glyph glyph-name="uni0418" unicode="&#x418;" 
d="M12 696h154v-367l233 367h134v-696h-151v368l-235 -368h-135v696z" />
    <glyph glyph-name="uni0419" unicode="&#x419;" 
d="M230 724q0 1 -1 2q-3 4 -6.5 9t-7.5 10l-18 26h50q1 -1 1.5 -2t1.5 -2t3 -5h92l2 4q3 3 4 5h49q-1 -2 -3 -4.5t-4 -6.5q-4 -5 -10 -14t-14 -20q0 -1 -3 -4q-2 -2 -4 -2q-3 0 -3 -2h-119q-2 2 -5 2q-1 0 -3 2zM30 696h155v-367l232 367h134v-696h-151v368l-235 -368h-135
v696z" />
    <glyph glyph-name="uni041A" unicode="&#x41a;" horiz-adv-x="497" 
d="M282 0l-117 275v-275h-153v696h154q1 -43 0.5 -80t-1.5 -69q-1 -63 0 -105l98 254h154v-6l-135 -323l155 -366q0 -2 -3 -2t-5 1q-7 1 -7 0h-140z" />
    <glyph glyph-name="uni041B" unicode="&#x41b;" 
d="M35 0l204 560h-95v136h364h1l-1 -696h-151v487l-169 -487h-153z" />
    <glyph glyph-name="uni041C" unicode="&#x41c;" horiz-adv-x="594" 
d="M388 696h146v-696h-46h-34h-28h-27v348l-77 -252h-97l-77 249v-345h-49.5h-36h-27h-23.5v696h135l125 -310z" />
    <glyph glyph-name="uni041D" unicode="&#x41d;" horiz-adv-x="594" 
d="M378 289h-213v-289h-153v696h153v-270h213v270h156l-2 -696h-154v289z" />
    <glyph glyph-name="uni041E" unicode="&#x41e;" horiz-adv-x="556" 
d="M491 651q5 -18 5 -36v-534q0 -18 -5 -36q-3 -7 -6.5 -13.5t-8.5 -11.5t-11 -9t-14 -6q-8 -3 -17 -4t-19 -1h-322q-10 0 -19 1t-17 4q-8 2 -14 6t-11 9t-8.5 11.5t-6.5 13.5q-5 18 -5 36v534q0 18 5 36q3 7 6.5 13.5t8.5 11.5t11 9t14 6q8 3 17 4t19 1h322q10 0 19 -1
t17 -4q8 -2 14 -6t11 -9t8.5 -11.5t6.5 -13.5zM340 135v425h-173v-425h14h19h122h18z" />
    <glyph glyph-name="uni041F" unicode="&#x41f;" 
d="M543 561v-561h-152v560h-216v-562h-155v698h524v-135h-1z" />
    <glyph glyph-name="uni0420" unicode="&#x420;" horiz-adv-x="510" 
d="M167 227v-227h-155v696h353q21 0 37 -1t26 -12q22 -19 22 -60v-314q0 -40 -22 -62q-23 -20 -64 -20h-197zM303 560h-136v-212h136v212z" />
    <glyph glyph-name="uni0421" unicode="&#x421;" horiz-adv-x="586" 
d="M370 135v78h156v-132q0 -10 -1 -19t-4 -17q-5 -15 -15 -25t-24 -15q-8 -3 -17.5 -4t-19.5 -1h-322q-10 0 -19 1t-17 4q-8 2 -14 6t-11 9t-8.5 11.5t-6.5 13.5q-5 18 -5 36v534q0 18 5 36q3 7 6.5 13.5t8.5 11.5t11 9t14 6q8 3 17 4t19 1h322q10 0 19.5 -1t17.5 -4
q14 -4 24 -15q10 -10 15 -25q3 -8 4 -17t1 -19v-132h-156v77h-173v-425h173z" />
    <glyph glyph-name="uni0422" unicode="&#x422;" horiz-adv-x="571" 
d="M284 0h-101v234v326h-171v58v78h519v-55v-81h-174v-232v-328h-73z" />
    <glyph glyph-name="uni0423" unicode="&#x423;" horiz-adv-x="601" 
d="M335 234l-19 -234h-174l39 232l-181 464h176l82 -252l94 252h189z" />
    <glyph glyph-name="uni0424" unicode="&#x424;" horiz-adv-x="559" 
d="M491 651q5 -18 5 -36v-534q0 -18 -5 -36q-3 -7 -6.5 -13.5t-8.5 -11.5t-11 -9t-14 -6q-8 -3 -17 -4t-19 -1h-109v-66h-83v66h-130q-10 0 -19 1t-17 4q-8 2 -14 6t-11 9t-8.5 11.5t-6.5 13.5q-5 18 -5 36v534q0 18 5 36q3 7 6.5 13.5t8.5 11.5t11 9t14 6q8 3 17 4t19 1
h122v66h83v-66h117q10 0 19 -1t17 -4q8 -2 14 -6t11 -9t8.5 -11.5t6.5 -13.5zM167 560v-425h173v425h-173z" />
    <glyph glyph-name="uni0425" unicode="&#x425;" horiz-adv-x="527" 
d="M487 0h-151l-83 266l-95 -266h-146v6l125 354l-108 330v6h151l70 -270v-1l82 271h137v-6l-107 -330l125 -354v-6z" />
    <glyph glyph-name="uni0426" unicode="&#x426;" horiz-adv-x="671" 
d="M12 0l2 696h154v-564h212v564h154v-585h77v-154q0 -25 -12 -37q-24 -21 -66 -21q-4 0 -4 49t-1 52h-516z" />
    <glyph glyph-name="uni0427" unicode="&#x427;" horiz-adv-x="516" 
d="M14 283q0 91 -1 154.5t-1.5 105.5t0 66.5t1.5 38t4 19t7 9.5q23 20 63 20h80v-13.5t-1 -13.5v-322h136v349h154v-696h-154v223h-214q-33 -1 -53.5 17t-20.5 43z" />
    <glyph glyph-name="uni0428" unicode="&#x428;" 
d="M403 696h155l1 -696h-546v696h156v-560h59v195h116v-37t-1 -44v-114h60v560z" />
    <glyph glyph-name="uni0429" unicode="&#x429;" horiz-adv-x="686" 
d="M558 696v-579h78v-156q0 -24 -12 -36q-21 -21 -66 -21h-19v96h-526v696h156v-560h59v195h116v-37t-1 -44v-114h60v560h155z" />
    <glyph glyph-name="uni042A" unicode="&#x42a;" horiz-adv-x="645" 
d="M152 560h-140v136h140v-136zM564 453q21 -21 21 -61v-310q0 -21 -5 -36t-15 -26q-23 -20 -63 -20h-350v560h1v136h153v-223h195q43 0 63 -20zM306 349v-212h115v212h-115z" />
    <glyph glyph-name="uni042B" unicode="&#x42b;" horiz-adv-x="730" 
d="M424 453q21 -21 21 -61v-310q0 -21 -5 -36t-15 -26q-23 -20 -63 -20h-350v696h154v-223h195q43 0 63 -20zM670 696h-159v-696h159v696zM281 137v212h-115v-212h115z" />
    <glyph glyph-name="uni042C" unicode="&#x42c;" horiz-adv-x="505" 
d="M424 453q21 -21 21 -61v-310q0 -21 -5 -36t-15 -26q-23 -20 -63 -20h-350v696h154v-223h195q43 0 63 -20zM281 137v212h-115v-212h115z" />
    <glyph glyph-name="uni042D" unicode="&#x42d;" 
d="M521 651q5 -18 5 -36v-51t-0.5 -106.5t-1 -133.5t-1 -132t-1 -102.5t-1.5 -44.5q-3 -7 -6.5 -13.5t-8.5 -11.5t-11 -9t-14 -6q-8 -3 -17 -4t-19 -1h-322q-10 0 -19.5 1t-17.5 4q-13 5 -24 15q-10 10 -15 25q-3 8 -4 17t-1 19v132h156v-78h173v148h-245v133h245v144h-173
v-77h-156v132q0 10 1 19t4 17q5 15 15 25q11 11 24 15q8 3 17.5 4t19.5 1h322q10 0 19 -1t17 -4q8 -2 14 -6t11 -9t8.5 -11.5t6.5 -13.5z" />
    <glyph glyph-name="uni042E" unicode="&#x42e;" horiz-adv-x="770" 
d="M692 677q9 -12 13 -25q3 -8 4 -17t1 -19v-535q0 -10 -1 -19t-4 -16q-2 -8 -5.5 -14.5t-7.5 -11.5q-11 -11 -26 -15l-334 -5h-16q-10 0 -19 1t-17 4q-15 5 -25 15q-4 5 -8 11.5t-6 14.5q-3 7 -4 16t-1 19v203h-71v-284h-153v696h153v-276h71v196q0 10 1 19t4 17
q2 7 6 13.5t8 11.5q5 5 11.5 8.5t13.5 5.5q8 3 17 4t19 1h315q24 0 35 -5q17 -4 26 -14zM376 131h192v429h-192v-429z" />
    <glyph glyph-name="uni042F" unicode="&#x42f;" horiz-adv-x="515" 
d="M455 696l-7 -696h-153v259l-117 -259h-166v7l133 291h-29q-43 0 -62 19q-10 11 -15 26t-5 36v244q0 42 23 61q11 10 26 11t33 1h339zM177 387h135v173h-135v-173z" />
    <glyph glyph-name="uni0430" unicode="&#x430;" horiz-adv-x="545" 
d="M191 116q-1 -5 -3 -20t-4.5 -33.5t-5 -36t-4.5 -26.5h-162v2l153 694h177l153 -694v-2h-162q-2 19 -6 48.5t-10 67.5h-126zM213 232h81q-7 40 -17 100.5t-23 139.5q-4 -20 -8 -45t-9 -55z" />
    <glyph glyph-name="uni0431" unicode="&#x431;" horiz-adv-x="505" 
d="M424 453q21 -21 21 -61v-310q0 -21 -5 -36t-15 -26q-23 -20 -63 -20h-350v696h327v-77h-173v-146h195q43 0 63 -20zM281 137v212h-115v-212h115z" />
    <glyph glyph-name="uni0432" unicode="&#x432;" horiz-adv-x="497" 
d="M14 0l-2 696h342q20 0 36 -4.5t30 -19.5q12 -13 13.5 -30.5t1.5 -29.5v-122q0 -19 -1.5 -43t-21.5 -40q-20 -14 -33 -23.5t-26 -17.5q19 -10 35.5 -17.5t28.5 -20.5q13 -11 16.5 -35t3.5 -38v-173q0 -41 -20 -61q-18 -21 -61 -21h-342zM166 560v-135h116v135h-116z
M166 309v-174h115l1 174q-18 -1 -48 0h-68z" />
    <glyph glyph-name="uni0433" unicode="&#x433;" 
d="M550 556h-367v-322v-234h-91h-63v407v289h26h19h71h50h109h78h65h46h33h24v-78v-62z" />
    <glyph glyph-name="uni0434" unicode="&#x434;" horiz-adv-x="542" 
d="M123 696h369v-112.5t-1 -104.5l1 -520h-155v41h-175v-41h-150v41q17 49 32.5 93.5t31.5 87.5l144 379h-97v136zM186 56h150l1 425z" />
    <glyph glyph-name="uni0435" unicode="&#x435;" horiz-adv-x="459" 
d="M12 696h387v-56v-80h-232v-134h213v-116h-213v-175h232v-135h-387v696z" />
    <glyph glyph-name="uni0436" unicode="&#x436;" horiz-adv-x="754" 
d="M684 690l-135 -323l155 -366q0 -3 -8 -1q-7 1 -7 0h-140l-112 260v-260h-158v260l-113 -260h-139q0 2 -8 0q-1 -1 -4 -1t-3 2l154 366l-135 323v6h155l93 -238v238h158v-238l93 238h154v-6z" />
    <glyph glyph-name="uni0437" unicode="&#x437;" horiz-adv-x="556" 
d="M471 360l25 -25v-254q0 -18 -5 -36q-3 -7 -6.5 -13.5t-8.5 -11.5t-11 -9t-14 -6q-8 -3 -22 -4t-24 -1h-303q-10 0 -24 1t-22 4q-13 5 -24 15q-10 10 -15 25q-3 8 -4 17t-1 19v132h156v-78h173v156h-166v133h166v136h-173v-77h-156v132q0 10 1 19t4 17q5 15 15 25
q11 11 24 15q8 3 21 4t23 1h308q10 0 22.5 -1t20.5 -4q8 -2 14 -6t11 -9t8.5 -11.5t6.5 -13.5q5 -18 5 -36v-229z" />
    <glyph glyph-name="uni0438" unicode="&#x438;" horiz-adv-x="593" 
d="M12 696h154v-367l233 367h134v-696h-151v368l-235 -368h-135v696z" />
    <glyph glyph-name="uni0439" unicode="&#x439;" 
d="M230 724q0 1 -1 2q-3 4 -6.5 9t-7.5 10l-18 26h50q1 -1 1.5 -2t1.5 -2t3 -5h92l2 4q3 3 4 5h49q-1 -2 -3 -4.5t-4 -6.5q-4 -5 -10 -14t-14 -20q0 -1 -3 -4q-2 -2 -4 -2q-3 0 -3 -2h-119q-2 2 -5 2q-1 0 -3 2zM30 696h155v-367l232 367h134v-696h-151v368l-235 -368h-135
v696z" />
    <glyph glyph-name="uni043A" unicode="&#x43a;" horiz-adv-x="487" 
d="M282 0l-117 275v-275h-153v696h154q1 -43 0.5 -80t-1.5 -69q-1 -63 0 -105l98 254h154v-6l-135 -323l155 -366q0 -2 -3 -2t-5 1q-7 1 -7 0h-140z" />
    <glyph glyph-name="uni043B" unicode="&#x43b;" horiz-adv-x="546" 
d="M12 0l204 560h-95v136h364h1l-1 -696h-151v487l-169 -487h-153z" />
    <glyph glyph-name="uni043C" unicode="&#x43c;" horiz-adv-x="594" 
d="M388 696h146v-696h-46h-34h-28h-27v348l-77 -252h-97l-77 249v-345h-49.5h-36h-27h-23.5v696h135l125 -310z" />
    <glyph glyph-name="uni043D" unicode="&#x43d;" horiz-adv-x="594" 
d="M165 289v-120v-169h-63h-90v696h63h90v-270h91h122v270h63h93l-2 -696h-63h-91v120v169h-91h-122z" />
    <glyph glyph-name="uni043E" unicode="&#x43e;" horiz-adv-x="556" 
d="M491 651q5 -18 5 -36v-534q0 -18 -5 -36q-3 -7 -6.5 -13.5t-8.5 -11.5t-11 -9t-14 -6q-8 -3 -17 -4t-19 -1h-322q-10 0 -19 1t-17 4q-8 2 -14 6t-11 9t-8.5 11.5t-6.5 13.5q-5 18 -5 36v534q0 18 5 36q3 7 6.5 13.5t8.5 11.5t11 9t14 6q8 3 17 4t19 1h322q10 0 19 -1
t17 -4q8 -2 14 -6t11 -9t8.5 -11.5t6.5 -13.5zM340 135v425h-173v-425h14h19h122h18z" />
    <glyph glyph-name="uni043F" unicode="&#x43f;" 
d="M544 561h-1v-561h-152v560h-216v-562h-155v281v282v135h523h1v-135z" />
    <glyph glyph-name="uni0440" unicode="&#x440;" horiz-adv-x="510" 
d="M167 227v-227h-155v696h353q21 0 37 -1t26 -12q22 -19 22 -60v-314q0 -40 -22 -62q-23 -20 -64 -20h-197zM303 560h-136v-212h136v212z" />
    <glyph glyph-name="uni0441" unicode="&#x441;" horiz-adv-x="556" 
d="M370 135v78h156v-132q0 -10 -1 -19t-4 -17q-5 -15 -15 -25t-24 -15q-8 -3 -17.5 -4t-19.5 -1h-322q-10 0 -19 1t-17 4q-8 2 -14 6t-11 9t-8.5 11.5t-6.5 13.5q-5 18 -5 36v534q0 18 5 36q3 7 6.5 13.5t8.5 11.5t11 9t14 6q8 3 17 4t19 1h322q10 0 19.5 -1t17.5 -4
q14 -4 24 -15q10 -10 15 -25q3 -8 4 -17t1 -19v-132h-156v77h-173v-425h173z" />
    <glyph glyph-name="uni0442" unicode="&#x442;" horiz-adv-x="571" 
d="M284 0h-101v234v326h-171v58v78h519v-55v-81h-174v-232v-328h-73z" />
    <glyph glyph-name="uni0443" unicode="&#x443;" horiz-adv-x="603" 
d="M347 234l-19 -234h-174l39 232l-181 464h176l82 -252l94 252h189z" />
    <glyph glyph-name="uni0444" unicode="&#x444;" horiz-adv-x="556" 
d="M491 651q5 -18 5 -36v-534q0 -18 -5 -36q-3 -7 -6.5 -13.5t-8.5 -11.5t-11 -9t-14 -6q-8 -3 -17 -4t-19 -1h-109v-66h-83v66h-130q-10 0 -19 1t-17 4q-8 2 -14 6t-11 9t-8.5 11.5t-6.5 13.5q-5 18 -5 36v534q0 18 5 36q3 7 6.5 13.5t8.5 11.5t11 9t14 6q8 3 17 4t19 1
h122v66h83v-66h117q10 0 19 -1t17 -4q8 -2 14 -6t11 -9t8.5 -11.5t6.5 -13.5zM167 560v-425h173v425h-173z" />
    <glyph glyph-name="uni0445" unicode="&#x445;" horiz-adv-x="527" 
d="M487 0h-151l-83 266l-95 -266h-146v6l125 354l-108 330v6h151l70 -270v-1l82 271h137v-6l-107 -330l125 -354v-6z" />
    <glyph glyph-name="uni0446" unicode="&#x446;" horiz-adv-x="671" 
d="M14 696h154v-564h212v564h154v-585h77v-154q0 -25 -12 -37q-24 -21 -66 -21q-4 0 -4 49t-1 52h-152q-46 1 -93.5 1h-97.5h-93t-80 -1z" />
    <glyph glyph-name="uni0447" unicode="&#x447;" horiz-adv-x="516" 
d="M14 389q0 24 -0.5 47.5t-1 43.5t-0.5 34.5v19.5v81q0 20 1 35.5t11 25.5q23 20 63 20h80v-13.5t-1 -13.5v-322h136v349h154v-696h-154v223h-214q-33 -1 -53.5 17t-20.5 43v106z" />
    <glyph glyph-name="uni0448" unicode="&#x448;" horiz-adv-x="609" 
d="M558 696l1 -696h-242h-304v62v230v404h65h91v-560h25h34v81v114h116v-37t-1 -44v-114h25h35v235v325h64h91z" />
    <glyph glyph-name="uni0449" unicode="&#x449;" horiz-adv-x="686" 
d="M558 117h34h44v-50v-72v-15v-19q0 -24 -12 -36q-21 -21 -66 -21h-9h-10v96h-222h-304v62v230v404h65h91v-560h25h34v81v114h48h68v-37t-1 -44v-114h25h35v235v325h64h91v-422v-34v-45v-9v-11v-28v-30z" />
    <glyph glyph-name="uni044A" unicode="&#x44a;" horiz-adv-x="645" 
d="M152 623v-63h-140v136h140v-43v-30zM564 453q21 -21 21 -61v-310q0 -21 -5 -36t-15 -26q-23 -20 -63 -20h-146h-204v259v301h1v136h153v-223h82h113q43 0 63 -20zM421 349h-49h-66v-40v-48v-124h49h66v89v123z" />
    <glyph glyph-name="uni044B" unicode="&#x44b;" horiz-adv-x="730" 
d="M424 453q21 -21 21 -61v-310q0 -21 -5 -36t-15 -26q-23 -20 -63 -20h-146h-204v259v364v30v43h154v-223h82h113q43 0 63 -20zM670 696h-159v-696h159v696zM281 349h-49h-66v-40v-48v-124h49h66v89v123z" />
    <glyph glyph-name="uni044C" unicode="&#x44c;" horiz-adv-x="505" 
d="M424 453q21 -21 21 -61v-310q0 -21 -5 -36t-15 -26q-23 -20 -63 -20h-350v696h154v-223h195q43 0 63 -20zM281 137v212h-115v-212h115z" />
    <glyph glyph-name="uni044D" unicode="&#x44d;" 
d="M521 651q5 -18 5 -36v-75v-65v-55v-49v-32v-29v-24v-20v-50v-27v-8v-12v-16v-18v-11v-13v-14v-16q0 -18 -5 -36q-3 -7 -6.5 -13.5t-8.5 -11.5t-11 -9t-14 -6q-8 -3 -17 -4t-19 -1h-17h-6h-49h-35h-64h-45h-62h-44q-10 0 -19.5 1t-17.5 4q-13 5 -24 15q-10 10 -15 25
q-3 8 -4 17t-1 19v70v62h41h30h53h32v-43v-35h18h13h129h13v148h-254v133h254v144h-173v-39v-38h-41h-30h-52h-33v15v9v21v34v11v12v14v16q0 10 1 19t4 17q5 15 15 25q11 11 24 15q8 3 17.5 4t19.5 1h15h13h11h10h25h9h6h17h63h46h43h30h20h14q10 0 19 -1t17 -4q8 -2 14 -6
t11 -9t8.5 -11.5t6.5 -13.5z" />
    <glyph glyph-name="uni044E" unicode="&#x44e;" horiz-adv-x="760" 
d="M692 677q9 -12 13 -25q3 -8 4 -17t1 -19v-17v-518q0 -10 -1 -19t-4 -16q-2 -8 -5.5 -14.5t-7.5 -11.5q-11 -11 -26 -15q-11 -5 -35 -5h-43h-61h-44h-63h-34h-48h-6h-16q-10 0 -19 1t-17 4q-15 5 -25 15q-4 5 -8 11.5t-6 14.5q-3 7 -4 16t-1 19v85v118h-30h-41v-118v-166
h-63h-90v696h32h121v-119v-157h31h40v29v12v16v49v18v20v24v28q0 10 1 19t4 17q2 7 6 13.5t8 11.5q5 5 11.5 8.5t13.5 5.5q8 3 17 4t19 1h13h20h29h42h45h62h17h6h34h9h11h13h14q24 0 35 -5q17 -4 26 -14zM568 131v176v253h-192v-45v-58v-136v-60v-130h19h25h45h62h18h23z
" />
    <glyph glyph-name="uni044F" unicode="&#x44f;" horiz-adv-x="515" 
d="M455 696l-7 -696h-153v259l-117 -259h-166v7l133 291h-29q-43 0 -62 19q-10 11 -15 26t-5 36v244q0 42 23 61q11 10 26 11t33 1h339zM177 387h135v173h-135v-173z" />
    <glyph glyph-name="uni0451" unicode="&#x451;" horiz-adv-x="459" 
d="M110 752q23 0 38.5 15.5t15.5 38.5t-15.5 38.5t-38.5 15.5t-38.5 -15.5t-15.5 -38.5t15.5 -38.5t38.5 -15.5zM287 752q23 0 38.5 15.5t15.5 38.5t-15.5 38.5t-38.5 15.5t-38.5 -15.5t-15.5 -38.5t15.5 -38.5t38.5 -15.5zM12 696h387v-56v-80h-232v-134h213v-116h-213
v-175h232v-135h-387v696z" />
    <glyph glyph-name="Wgrave" unicode="&#x1e80;" horiz-adv-x="726" 
d="M156 918h160l93 -144h-167zM666 696l-71 -696h-146l-116 310l-125 -310h-135l-61 696h165l32 -345l77 249h97l77 -252l44 348h162z" />
    <glyph glyph-name="wgrave" unicode="&#x1e81;" 
d="M156 918h160l93 -144h-167zM666 696l-71 -696h-146l-116 310l-125 -310h-135l-61 696h165l32 -345l77 249h97l77 -252l44 348h162z" />
    <glyph glyph-name="Wacute" unicode="&#x1e82;" horiz-adv-x="726" 
d="M244 774l93 144h160l-86 -144h-167zM666 696l-71 -696h-146l-116 310l-125 -310h-135l-61 696h165l32 -345l77 249h97l77 -252l44 348h162z" />
    <glyph glyph-name="wacute" unicode="&#x1e83;" horiz-adv-x="726" 
d="M244 774l93 144h160l-86 -144h-167zM666 696l-71 -696h-146l-116 310l-125 -310h-135l-61 696h165l32 -345l77 249h97l77 -252l44 348h162z" />
    <glyph glyph-name="Wdieresis" unicode="&#x1e84;" horiz-adv-x="726" 
d="M236 752q23 0 38.5 15.5t15.5 38.5t-15.5 38.5t-38.5 15.5t-38.5 -15.5t-15.5 -38.5t15.5 -38.5t38.5 -15.5zM413 752q23 0 38.5 15.5t15.5 38.5t-15.5 38.5t-38.5 15.5t-38.5 -15.5t-15.5 -38.5t15.5 -38.5t38.5 -15.5zM666 696l-71 -696h-146l-116 310l-125 -310h-135
l-61 696h165l32 -345l77 249h97l77 -252l44 348h162z" />
    <glyph glyph-name="wdieresis" unicode="&#x1e85;" horiz-adv-x="726" 
d="M236 752q23 0 38.5 15.5t15.5 38.5t-15.5 38.5t-38.5 15.5t-38.5 -15.5t-15.5 -38.5t15.5 -38.5t38.5 -15.5zM413 752q23 0 38.5 15.5t15.5 38.5t-15.5 38.5t-38.5 15.5t-38.5 -15.5t-15.5 -38.5t15.5 -38.5t38.5 -15.5zM666 696l-71 -696h-146l-116 310l-125 -310h-135
l-61 696h165l32 -345l77 249h97l77 -252l44 348h162z" />
    <glyph glyph-name="Ygrave" unicode="&#x1ef2;" 
d="M75 918h160l93 -144h-167zM335 234l-19 -234h-174l39 232l-181 464h176l82 -252l94 252h189z" />
    <glyph glyph-name="ygrave" unicode="&#x1ef3;" 
d="M75 918h160l93 -144h-167zM335 234l-19 -234h-174l39 232l-181 464h176l82 -252l94 252h189z" />
    <glyph glyph-name="endash" unicode="&#x2013;" horiz-adv-x="306" 
d="M7 272v123h249v-123h-249z" />
    <glyph glyph-name="emdash" unicode="&#x2014;" horiz-adv-x="362" 
d="M7 272v123h305v-123h-305z" />
    <glyph glyph-name="quoteleft" unicode="&#x2018;" horiz-adv-x="230" 
d="M170 499h-157l-1 197h79v-40l79 -19v-138z" />
    <glyph glyph-name="quoteright" unicode="&#x2019;" horiz-adv-x="230" 
d="M91 499v40l-79 19v138h157l1 -197h-79z" />
    <glyph glyph-name="quotesinglbase" unicode="&#x201a;" 
d="M12 0v138h157l1 -197h-79v40z" />
    <glyph glyph-name="quotedblleft" unicode="&#x201c;" horiz-adv-x="429" 
d="M153 637v-138h-157l-1 197h79v-40zM363 499h-157l-1 197h79v-40l79 -19v-138z" />
    <glyph glyph-name="quotedblright" unicode="&#x201d;" horiz-adv-x="440" 
d="M170 499h-79v40l-79 19v138h157zM301 499v40l-79 19v138h157l1 -197h-79z" />
    <glyph glyph-name="quotedblbase" unicode="&#x201e;" 
d="M91 -59v40l-79 19v138h157l1 -197h-79z" />
    <glyph glyph-name="ac" 
 />
    <glyph glyph-name="uni0430.001" 
 />
  </font>
</defs>
</svg>
