<svg width="70" height="71" viewBox="0 0 70 71" fill="none" xmlns="http://www.w3.org/2000/svg">
<path d="M35.0007 32.5417C37.3081 32.5417 39.5637 31.8477 41.4823 30.5474C43.4009 29.2471 44.8962 27.399 45.7792 25.2368C46.6623 23.0745 46.8933 20.6952 46.4431 18.3998C45.993 16.1043 44.8818 13.9958 43.2502 12.3409C41.6186 10.686 39.5398 9.55897 37.2767 9.10238C35.0136 8.64579 32.6678 8.88013 30.536 9.77576C28.4042 10.6714 26.5821 12.1881 25.3002 14.1341C24.0182 16.0801 23.334 18.3679 23.334 20.7083C23.334 23.8467 24.5631 26.8566 26.7511 29.0758C28.939 31.2949 31.9065 32.5417 35.0007 32.5417Z" fill="white"/>
<path d="M52.5007 62.1247C53.2742 62.1247 54.0161 61.813 54.563 61.2582C55.11 60.7034 55.4173 59.9509 55.4173 59.1663C55.4173 53.6742 53.2663 48.4069 49.4374 44.5233C45.6085 40.6398 40.4155 38.458 35.0007 38.458C29.5858 38.458 24.3928 40.6398 20.5639 44.5233C16.735 48.4069 14.584 53.6742 14.584 59.1663C14.584 59.9509 14.8913 60.7034 15.4383 61.2582C15.9852 61.813 16.7271 62.1247 17.5007 62.1247H52.5007Z" fill="white"/>
</svg>
