<svg width="338" height="62" viewBox="0 0 338 62" fill="none" xmlns="http://www.w3.org/2000/svg">
<g filter="url(#filter0_d_103_6)">
<path d="M22.3579 53L13.7886 32.8584V53H2.58252V2.02344H13.8618C13.9106 4.12305 13.9106 6.07617 13.8618 7.88281C13.8618 9.68945 13.8374 11.374 13.7886 12.9365C13.7397 16.0127 13.7397 18.5762 13.7886 20.627L20.9663 2.02344H32.2456V2.46289L22.3579 26.1201L33.7104 52.9268C33.7104 53.0244 33.6372 53.0732 33.4907 53.0732C33.3442 53.0732 33.2222 53.0488 33.1245 53C32.7827 52.9512 32.6118 52.9512 32.6118 53H22.3579ZM73.3345 5.31934C73.5786 6.19824 73.7007 7.07715 73.7007 7.95605V47.0674C73.7007 47.9463 73.5786 48.8252 73.3345 49.7041C73.188 50.0459 73.0171 50.3877 72.8218 50.7295C72.6753 51.0225 72.48 51.291 72.2358 51.5352C71.9917 51.7793 71.7231 51.999 71.4302 52.1943C71.1372 52.3896 70.7954 52.5361 70.4048 52.6338C70.0142 52.7803 69.5991 52.8779 69.1597 52.9268C68.7202 52.9756 68.2563 53 67.7681 53H44.1841C43.6958 53 43.2319 52.9756 42.7925 52.9268C42.353 52.8779 41.938 52.7803 41.5474 52.6338C41.1567 52.5361 40.8149 52.3896 40.522 52.1943C40.229 51.999 39.9604 51.7793 39.7163 51.5352C39.4722 51.291 39.2524 51.0225 39.0571 50.7295C38.9106 50.3877 38.7642 50.0459 38.6177 49.7041C38.3735 48.8252 38.2515 47.9463 38.2515 47.0674V7.95605C38.2515 7.07715 38.3735 6.19824 38.6177 5.31934C38.7642 4.97754 38.9106 4.66016 39.0571 4.36719C39.2524 4.02539 39.4722 3.73242 39.7163 3.48828C39.9604 3.24414 40.229 3.02441 40.522 2.8291C40.8149 2.63379 41.1567 2.4873 41.5474 2.38965C41.938 2.24316 42.353 2.14551 42.7925 2.09668C43.2319 2.04785 43.6958 2.02344 44.1841 2.02344H67.7681C68.2563 2.02344 68.7202 2.04785 69.1597 2.09668C69.5991 2.14551 70.0142 2.24316 70.4048 2.38965C70.7954 2.4873 71.1372 2.63379 71.4302 2.8291C71.7231 3.02441 71.9917 3.24414 72.2358 3.48828C72.48 3.73242 72.6753 4.02539 72.8218 4.36719C73.0171 4.66016 73.188 4.97754 73.3345 5.31934ZM62.2749 43.1123V11.9844H49.604V43.1123H50.6294H52.021H60.9565H62.2749ZM90.1802 31.833V40.6221V53H85.5659H78.9741V2.02344H83.5884H90.1802V21.7988H96.8452H105.781V2.02344H110.395H117.207L117.06 53H112.446H105.781V44.2109V31.833H99.1157H90.1802ZM142.402 53H135.004V35.8613V11.9844H122.48V7.73633V2.02344H160.493V6.05176V11.9844H147.749V28.9766V53H142.402ZM177.412 44.5039C177.363 44.748 177.29 45.2363 177.192 45.9688C177.094 46.7012 176.972 47.5312 176.826 48.459C176.728 49.3379 176.606 50.2168 176.459 51.0957C176.362 51.9258 176.264 52.5605 176.167 53H164.301V52.8535L175.507 2.02344H188.471L199.677 52.8535V53H187.812C187.714 52.0723 187.568 50.9004 187.373 49.4844C187.177 48.0195 186.933 46.3594 186.64 44.5039H177.412ZM179.023 36.0078H184.956C184.614 34.0547 184.199 31.6133 183.71 28.6836C183.222 25.7051 182.661 22.2871 182.026 18.4297C181.831 19.4062 181.635 20.5049 181.44 21.7256C181.245 22.9463 181.025 24.2891 180.781 25.7539L179.023 36.0078ZM223.994 53L215.424 32.8584V53H204.218V2.02344H215.498C215.546 4.12305 215.546 6.07617 215.498 7.88281C215.498 9.68945 215.473 11.374 215.424 12.9365C215.375 16.0127 215.375 18.5762 215.424 20.627L222.602 2.02344H233.881V2.46289L223.994 26.1201L235.346 52.9268C235.346 53.0244 235.273 53.0732 235.126 53.0732C234.98 53.0732 234.858 53.0488 234.76 53C234.418 52.9512 234.248 52.9512 234.248 53H223.994ZM259.809 53H252.412V35.8613V11.9844H239.887V7.73633V2.02344H277.9V6.05176V11.9844H265.156V28.9766V53H259.809ZM311.884 19.8213C312.91 20.8467 313.422 22.3359 313.422 24.2891V46.9941C313.422 48.0195 313.3 48.8984 313.056 49.6309C312.812 50.3633 312.446 50.998 311.958 51.5352C310.834 52.5117 309.296 53 307.343 53H296.65H281.708V34.0303V7.37012V5.17285V2.02344H292.988V18.3564H298.994H307.27C309.37 18.3564 310.908 18.8447 311.884 19.8213ZM329.902 2.02344H318.256V53H329.902V2.02344ZM301.411 27.4385H297.822H292.988V30.3682V33.8838V42.9658H296.577H301.411V36.4473V27.4385Z" fill="url(#paint0_linear_103_6)"/>
</g>
<defs>
<filter id="filter0_d_103_6" x="0.58252" y="0.0234375" width="337.319" height="61.0498" filterUnits="userSpaceOnUse" color-interpolation-filters="sRGB">
<feFlood flood-opacity="0" result="BackgroundImageFix"/>
<feColorMatrix in="SourceAlpha" type="matrix" values="0 0 0 0 0 0 0 0 0 0 0 0 0 0 0 0 0 0 127 0" result="hardAlpha"/>
<feOffset dx="3" dy="3"/>
<feGaussianBlur stdDeviation="2.5"/>
<feComposite in2="hardAlpha" operator="out"/>
<feColorMatrix type="matrix" values="0 0 0 0 0.258333 0 0 0 0 0.121441 0 0 0 0 0.0703959 0 0 0 1 0"/>
<feBlend mode="normal" in2="BackgroundImageFix" result="effect1_dropShadow_103_6"/>
<feBlend mode="normal" in="SourceGraphic" in2="effect1_dropShadow_103_6" result="shape"/>
</filter>
<linearGradient id="paint0_linear_103_6" x1="168" y1="10" x2="168" y2="131.5" gradientUnits="userSpaceOnUse">
<stop stop-color="#F9BD9E"/>
<stop offset="1" stop-color="#AE7258"/>
</linearGradient>
</defs>
</svg>
