<svg width="40" height="39" viewBox="0 0 40 39" fill="none" xmlns="http://www.w3.org/2000/svg">
<path d="M39.3111 31.0871L39.1145 30.5021C38.649 29.1353 37.1232 27.7098 35.7214 27.3343L30.5335 25.9343C29.1266 25.5562 27.1197 26.0646 26.0903 27.0813L24.2127 28.9361C17.389 27.1147 12.0382 21.8289 10.1968 15.0898L12.0745 13.235C13.1038 12.2182 13.6184 10.2384 13.2357 8.84863L11.821 3.7214C11.4382 2.33419 9.99254 0.826983 8.61155 0.372211L8.01933 0.175522C6.63569 -0.279249 4.6624 0.180673 3.63313 1.19739L0.824469 3.97433C0.322705 4.46736 0.00201534 5.87754 0.00201534 5.88269C-0.096219 14.6912 3.40033 23.1777 9.70802 29.4086C16.0002 35.6241 24.5594 39.0729 33.4507 38.9988C33.4972 38.9988 34.9662 38.6871 35.4679 38.194L38.2766 35.4196C39.3059 34.403 39.7714 32.4538 39.3111 31.0871Z" fill="white"/>
</svg>
