<svg width="25" height="25" viewBox="0 0 25 25" fill="none" xmlns="http://www.w3.org/2000/svg">
<path d="M14.8825 12.4469C14.8825 13.7626 13.812 14.8293 12.4915 14.8293C11.171 14.8293 10.1006 13.7626 10.1006 12.4469C10.1006 11.1311 11.171 10.0645 12.4915 10.0645C13.812 10.0645 14.8825 11.1311 14.8825 12.4469Z" fill="url(#paint0_linear_9_93)"/>
<path d="M18.0829 8.23182C17.968 7.92148 17.7846 7.64058 17.5464 7.41002C17.315 7.17261 17.0333 6.9899 16.7216 6.87538C16.4689 6.77757 16.0892 6.66115 15.3899 6.62943C14.6334 6.59505 14.4066 6.58765 12.4914 6.58765C10.576 6.58765 10.3492 6.59486 9.59284 6.62924C8.89352 6.66115 8.51364 6.77757 8.26109 6.87538C7.94945 6.9899 7.66755 7.17261 7.43635 7.41002C7.19809 7.64058 7.01473 7.92129 6.89961 8.23182C6.80144 8.48365 6.6846 8.86217 6.65277 9.559C6.61827 10.3126 6.61084 10.5386 6.61084 12.4472C6.61084 14.3555 6.61827 14.5815 6.65277 15.3353C6.6846 16.0322 6.80144 16.4105 6.89961 16.6623C7.01473 16.9729 7.1979 17.2536 7.43616 17.4841C7.66755 17.7215 7.94926 17.9042 8.2609 18.0188C8.51364 18.1168 8.89352 18.2332 9.59284 18.2649C10.3492 18.2993 10.5758 18.3065 12.4912 18.3065C14.4067 18.3065 14.6336 18.2993 15.3897 18.2649C16.089 18.2332 16.4689 18.1168 16.7216 18.0188C17.3472 17.7783 17.8416 17.2857 18.0829 16.6623C18.1811 16.4105 18.2979 16.0322 18.33 15.3353C18.3645 14.5815 18.3717 14.3555 18.3717 12.4472C18.3717 10.5386 18.3645 10.3126 18.33 9.559C18.2981 8.86217 18.1813 8.48365 18.0829 8.23182ZM12.4914 16.1171C10.457 16.1171 8.80794 14.474 8.80794 12.447C8.80794 10.4199 10.457 8.7769 12.4914 8.7769C14.5255 8.7769 16.1746 10.4199 16.1746 12.447C16.1746 14.474 14.5255 16.1171 12.4914 16.1171ZM16.3202 9.48949C15.8449 9.48949 15.4595 9.10546 15.4595 8.63179C15.4595 8.15812 15.8449 7.7741 16.3202 7.7741C16.7956 7.7741 17.181 8.15812 17.181 8.63179C17.1808 9.10546 16.7956 9.48949 16.3202 9.48949Z" fill="url(#paint1_linear_9_93)"/>
<path d="M12.4914 0C5.59367 0 0 5.57369 0 12.4468C0 19.32 5.59367 24.8937 12.4914 24.8937C19.3892 24.8937 24.9829 19.32 24.9829 12.4468C24.9829 5.57369 19.3892 0 12.4914 0ZM19.621 15.3935C19.5863 16.1543 19.4649 16.6738 19.2876 17.1285C18.915 18.0885 18.1534 18.8475 17.1898 19.2188C16.7337 19.3954 16.2122 19.5162 15.4489 19.5509C14.684 19.5857 14.4396 19.594 12.4916 19.594C10.5435 19.594 10.2993 19.5857 9.53422 19.5509C8.77085 19.5162 8.24936 19.3954 7.79324 19.2188C7.31444 19.0393 6.88101 18.758 6.52267 18.3943C6.15786 18.0374 5.87557 17.6054 5.69545 17.1285C5.51819 16.674 5.39677 16.1543 5.36208 15.3937C5.32682 14.6313 5.31862 14.3879 5.31862 12.4468C5.31862 10.5058 5.32682 10.2623 5.36189 9.50017C5.39658 8.73934 5.51781 8.21989 5.69507 7.76522C5.87519 7.28832 6.15766 6.85624 6.52267 6.49938C6.88082 6.13567 7.31444 5.8544 7.79305 5.67492C8.24936 5.49829 8.77066 5.3775 9.53422 5.34274C10.2991 5.30799 10.5435 5.29963 12.4914 5.29963C14.4394 5.29963 14.6838 5.30799 15.4487 5.34293C16.2122 5.3775 16.7335 5.49829 17.1898 5.67473C17.6685 5.85421 18.1021 6.13567 18.4604 6.49938C18.8252 6.85643 19.1077 7.28832 19.2876 7.76522C19.4651 8.21989 19.5863 8.73934 19.6212 9.50017C19.6561 10.2623 19.6643 10.5058 19.6643 12.4468C19.6643 14.3879 19.6561 14.6313 19.621 15.3935Z" fill="url(#paint2_linear_9_93)"/>
<defs>
<linearGradient id="paint0_linear_9_93" x1="12.4915" y1="10.0645" x2="12.4915" y2="14.8293" gradientUnits="userSpaceOnUse">
<stop stop-color="#E5B382"/>
<stop offset="1" stop-color="#A25526"/>
</linearGradient>
<linearGradient id="paint1_linear_9_93" x1="12.4913" y1="6.58765" x2="12.4913" y2="18.3065" gradientUnits="userSpaceOnUse">
<stop stop-color="#E5B382"/>
<stop offset="1" stop-color="#A25526"/>
</linearGradient>
<linearGradient id="paint2_linear_9_93" x1="12.4914" y1="0" x2="12.4914" y2="24.8937" gradientUnits="userSpaceOnUse">
<stop stop-color="#E5B382"/>
<stop offset="1" stop-color="#A25526"/>
</linearGradient>
</defs>
</svg>
