<svg width="60" height="44" viewBox="0 0 60 44" fill="none" xmlns="http://www.w3.org/2000/svg">
<path fill-rule="evenodd" clip-rule="evenodd" d="M5.35711 10.4651H54.6426C57.6012 10.4651 60 8.12231 60 5.23253C60 2.34274 57.6015 0 54.6426 0H5.35711C2.39852 0.000233877 0 2.34274 0 5.23276C0 8.12254 2.39852 10.4651 5.35711 10.4651ZM54.6426 16.7442H5.35711C2.39852 16.7442 0 19.0869 0 21.9767C0 24.8667 2.39852 27.2092 5.35711 27.2092H54.6426C57.6012 27.2092 60 24.8667 60 21.9767C60 19.0869 57.6012 16.7442 54.6426 16.7442ZM54.6426 33.4884H5.35711C2.39852 33.4884 0 35.8309 0 38.7209C0 41.6107 2.39852 43.9534 5.35711 43.9534H54.6426C57.6012 43.9534 60 41.6107 60 38.7209C60 35.8309 57.6012 33.4884 54.6426 33.4884Z" fill="white"/>
</svg>
