<svg width="25" height="18" viewBox="0 0 25 18" fill="none" xmlns="http://www.w3.org/2000/svg">
<path d="M24.4469 2.57189L24.4781 2.77942C24.1761 1.6899 23.3604 0.849191 22.324 0.543191L22.3021 0.537897C20.3532 1.45155e-05 12.5106 1.4633e-05 12.5106 1.4633e-05C12.5106 1.4633e-05 4.68775 -0.0105737 2.71902 0.537897C1.66279 0.84919 0.846129 1.6899 0.549258 2.75719L0.54405 2.77942C-0.184066 6.64519 -0.189275 11.2902 0.576341 15.4292L0.54405 15.2195C0.846129 16.3091 1.66174 17.1498 2.69819 17.4558L2.72006 17.4611C4.66692 18 12.5116 18 12.5116 18C12.5116 18 20.3334 18 22.3032 17.4611C23.3604 17.1498 24.1771 16.3091 24.474 15.2418L24.4792 15.2195C24.8104 13.4217 25 11.3527 25 9.2393C25 9.16201 25 9.08365 24.999 9.0053C25 8.9333 25 8.84754 25 8.76177C25 6.6473 24.8104 4.57836 24.4469 2.57189ZM10.0085 12.8658V5.14378L16.5355 9.0106L10.0085 12.8658Z" fill="url(#paint0_linear_9_92)"/>
<defs>
<linearGradient id="paint0_linear_9_92" x1="12.5" y1="0" x2="12.5" y2="18" gradientUnits="userSpaceOnUse">
<stop stop-color="#E5B382"/>
<stop offset="1" stop-color="#A25526"/>
</linearGradient>
</defs>
</svg>
